<?xml version="1.0" encoding="utf-8" standalone="no"?>
<!DOCTYPE svg PUBLIC "-//W3C//DTD SVG 1.1//EN"
  "http://www.w3.org/Graphics/SVG/1.1/DTD/svg11.dtd">
<svg xmlns:xlink="http://www.w3.org/1999/xlink" width="1147.410259pt" height="466.216172pt" viewBox="0 0 1147.410259 466.216172" xmlns="http://www.w3.org/2000/svg" version="1.1">
 <metadata>
  <rdf:RDF xmlns:dc="http://purl.org/dc/elements/1.1/" xmlns:cc="http://creativecommons.org/ns#" xmlns:rdf="http://www.w3.org/1999/02/22-rdf-syntax-ns#">
   <cc:Work>
    <dc:type rdf:resource="http://purl.org/dc/dcmitype/StillImage"/>
    <dc:date>2025-07-29T07:34:42.527251</dc:date>
    <dc:format>image/svg+xml</dc:format>
    <dc:creator>
     <cc:Agent>
      <dc:title>Matplotlib v3.10.0, https://matplotlib.org/</dc:title>
     </cc:Agent>
    </dc:creator>
   </cc:Work>
  </rdf:RDF>
 </metadata>
 <defs>
  <style type="text/css">*{stroke-linejoin: round; stroke-linecap: butt}</style>
 </defs>
 <g id="figure_1">
  <g id="patch_1">
   <path d="M 0 466.216172 
L 1147.410259 466.216172 
L 1147.410259 0 
L 0 0 
z
" style="fill: #ffffff"/>
  </g>
  <g id="axes_1">
   <g id="patch_2">
    <path d="M 135.810259 313.66875 
L 440.173895 313.66875 
L 440.173895 36.46875 
L 135.810259 36.46875 
z
" style="fill: #ffe6e6; opacity: 0.3"/>
   </g>
   <g id="matplotlib.axis_1">
    <g id="xtick_1">
     <g id="line2d_1">
      <defs>
       <path id="m9a66c9f802" d="M 0 0 
L 0 3.5 
" style="stroke: #000000; stroke-width: 0.8"/>
      </defs>
      <g>
       <use xlink:href="#m9a66c9f802" x="162.22198" y="313.66875" style="stroke: #000000; stroke-width: 0.8"/>
      </g>
     </g>
     <g id="text_1">
      <!-- Claude-3.7-Sonnet -->
      <g transform="translate(16.968363 451.949075) rotate(-40) scale(0.2 -0.2)">
       <defs>
        <path id="DejaVuSans-43" d="M 4122 4306 
L 4122 3641 
Q 3803 3938 3442 4084 
Q 3081 4231 2675 4231 
Q 1875 4231 1450 3742 
Q 1025 3253 1025 2328 
Q 1025 1406 1450 917 
Q 1875 428 2675 428 
Q 3081 428 3442 575 
Q 3803 722 4122 1019 
L 4122 359 
Q 3791 134 3420 21 
Q 3050 -91 2638 -91 
Q 1578 -91 968 557 
Q 359 1206 359 2328 
Q 359 3453 968 4101 
Q 1578 4750 2638 4750 
Q 3056 4750 3426 4639 
Q 3797 4528 4122 4306 
z
" transform="scale(0.015625)"/>
        <path id="DejaVuSans-6c" d="M 603 4863 
L 1178 4863 
L 1178 0 
L 603 0 
L 603 4863 
z
" transform="scale(0.015625)"/>
        <path id="DejaVuSans-61" d="M 2194 1759 
Q 1497 1759 1228 1600 
Q 959 1441 959 1056 
Q 959 750 1161 570 
Q 1363 391 1709 391 
Q 2188 391 2477 730 
Q 2766 1069 2766 1631 
L 2766 1759 
L 2194 1759 
z
M 3341 1997 
L 3341 0 
L 2766 0 
L 2766 531 
Q 2569 213 2275 61 
Q 1981 -91 1556 -91 
Q 1019 -91 701 211 
Q 384 513 384 1019 
Q 384 1609 779 1909 
Q 1175 2209 1959 2209 
L 2766 2209 
L 2766 2266 
Q 2766 2663 2505 2880 
Q 2244 3097 1772 3097 
Q 1472 3097 1187 3025 
Q 903 2953 641 2809 
L 641 3341 
Q 956 3463 1253 3523 
Q 1550 3584 1831 3584 
Q 2591 3584 2966 3190 
Q 3341 2797 3341 1997 
z
" transform="scale(0.015625)"/>
        <path id="DejaVuSans-75" d="M 544 1381 
L 544 3500 
L 1119 3500 
L 1119 1403 
Q 1119 906 1312 657 
Q 1506 409 1894 409 
Q 2359 409 2629 706 
Q 2900 1003 2900 1516 
L 2900 3500 
L 3475 3500 
L 3475 0 
L 2900 0 
L 2900 538 
Q 2691 219 2414 64 
Q 2138 -91 1772 -91 
Q 1169 -91 856 284 
Q 544 659 544 1381 
z
M 1991 3584 
L 1991 3584 
z
" transform="scale(0.015625)"/>
        <path id="DejaVuSans-64" d="M 2906 2969 
L 2906 4863 
L 3481 4863 
L 3481 0 
L 2906 0 
L 2906 525 
Q 2725 213 2448 61 
Q 2172 -91 1784 -91 
Q 1150 -91 751 415 
Q 353 922 353 1747 
Q 353 2572 751 3078 
Q 1150 3584 1784 3584 
Q 2172 3584 2448 3432 
Q 2725 3281 2906 2969 
z
M 947 1747 
Q 947 1113 1208 752 
Q 1469 391 1925 391 
Q 2381 391 2643 752 
Q 2906 1113 2906 1747 
Q 2906 2381 2643 2742 
Q 2381 3103 1925 3103 
Q 1469 3103 1208 2742 
Q 947 2381 947 1747 
z
" transform="scale(0.015625)"/>
        <path id="DejaVuSans-65" d="M 3597 1894 
L 3597 1613 
L 953 1613 
Q 991 1019 1311 708 
Q 1631 397 2203 397 
Q 2534 397 2845 478 
Q 3156 559 3463 722 
L 3463 178 
Q 3153 47 2828 -22 
Q 2503 -91 2169 -91 
Q 1331 -91 842 396 
Q 353 884 353 1716 
Q 353 2575 817 3079 
Q 1281 3584 2069 3584 
Q 2775 3584 3186 3129 
Q 3597 2675 3597 1894 
z
M 3022 2063 
Q 3016 2534 2758 2815 
Q 2500 3097 2075 3097 
Q 1594 3097 1305 2825 
Q 1016 2553 972 2059 
L 3022 2063 
z
" transform="scale(0.015625)"/>
        <path id="DejaVuSans-2d" d="M 313 2009 
L 1997 2009 
L 1997 1497 
L 313 1497 
L 313 2009 
z
" transform="scale(0.015625)"/>
        <path id="DejaVuSans-33" d="M 2597 2516 
Q 3050 2419 3304 2112 
Q 3559 1806 3559 1356 
Q 3559 666 3084 287 
Q 2609 -91 1734 -91 
Q 1441 -91 1130 -33 
Q 819 25 488 141 
L 488 750 
Q 750 597 1062 519 
Q 1375 441 1716 441 
Q 2309 441 2620 675 
Q 2931 909 2931 1356 
Q 2931 1769 2642 2001 
Q 2353 2234 1838 2234 
L 1294 2234 
L 1294 2753 
L 1863 2753 
Q 2328 2753 2575 2939 
Q 2822 3125 2822 3475 
Q 2822 3834 2567 4026 
Q 2313 4219 1838 4219 
Q 1578 4219 1281 4162 
Q 984 4106 628 3988 
L 628 4550 
Q 988 4650 1302 4700 
Q 1616 4750 1894 4750 
Q 2613 4750 3031 4423 
Q 3450 4097 3450 3541 
Q 3450 3153 3228 2886 
Q 3006 2619 2597 2516 
z
" transform="scale(0.015625)"/>
        <path id="DejaVuSans-2e" d="M 684 794 
L 1344 794 
L 1344 0 
L 684 0 
L 684 794 
z
" transform="scale(0.015625)"/>
        <path id="DejaVuSans-37" d="M 525 4666 
L 3525 4666 
L 3525 4397 
L 1831 0 
L 1172 0 
L 2766 4134 
L 525 4134 
L 525 4666 
z
" transform="scale(0.015625)"/>
        <path id="DejaVuSans-53" d="M 3425 4513 
L 3425 3897 
Q 3066 4069 2747 4153 
Q 2428 4238 2131 4238 
Q 1616 4238 1336 4038 
Q 1056 3838 1056 3469 
Q 1056 3159 1242 3001 
Q 1428 2844 1947 2747 
L 2328 2669 
Q 3034 2534 3370 2195 
Q 3706 1856 3706 1288 
Q 3706 609 3251 259 
Q 2797 -91 1919 -91 
Q 1588 -91 1214 -16 
Q 841 59 441 206 
L 441 856 
Q 825 641 1194 531 
Q 1563 422 1919 422 
Q 2459 422 2753 634 
Q 3047 847 3047 1241 
Q 3047 1584 2836 1778 
Q 2625 1972 2144 2069 
L 1759 2144 
Q 1053 2284 737 2584 
Q 422 2884 422 3419 
Q 422 4038 858 4394 
Q 1294 4750 2059 4750 
Q 2388 4750 2728 4690 
Q 3069 4631 3425 4513 
z
" transform="scale(0.015625)"/>
        <path id="DejaVuSans-6f" d="M 1959 3097 
Q 1497 3097 1228 2736 
Q 959 2375 959 1747 
Q 959 1119 1226 758 
Q 1494 397 1959 397 
Q 2419 397 2687 759 
Q 2956 1122 2956 1747 
Q 2956 2369 2687 2733 
Q 2419 3097 1959 3097 
z
M 1959 3584 
Q 2709 3584 3137 3096 
Q 3566 2609 3566 1747 
Q 3566 888 3137 398 
Q 2709 -91 1959 -91 
Q 1206 -91 779 398 
Q 353 888 353 1747 
Q 353 2609 779 3096 
Q 1206 3584 1959 3584 
z
" transform="scale(0.015625)"/>
        <path id="DejaVuSans-6e" d="M 3513 2113 
L 3513 0 
L 2938 0 
L 2938 2094 
Q 2938 2591 2744 2837 
Q 2550 3084 2163 3084 
Q 1697 3084 1428 2787 
Q 1159 2491 1159 1978 
L 1159 0 
L 581 0 
L 581 3500 
L 1159 3500 
L 1159 2956 
Q 1366 3272 1645 3428 
Q 1925 3584 2291 3584 
Q 2894 3584 3203 3211 
Q 3513 2838 3513 2113 
z
" transform="scale(0.015625)"/>
        <path id="DejaVuSans-74" d="M 1172 4494 
L 1172 3500 
L 2356 3500 
L 2356 3053 
L 1172 3053 
L 1172 1153 
Q 1172 725 1289 603 
Q 1406 481 1766 481 
L 2356 481 
L 2356 0 
L 1766 0 
Q 1100 0 847 248 
Q 594 497 594 1153 
L 594 3053 
L 172 3053 
L 172 3500 
L 594 3500 
L 594 4494 
L 1172 4494 
z
" transform="scale(0.015625)"/>
       </defs>
       <use xlink:href="#DejaVuSans-43"/>
       <use xlink:href="#DejaVuSans-6c" transform="translate(69.824219 0)"/>
       <use xlink:href="#DejaVuSans-61" transform="translate(97.607422 0)"/>
       <use xlink:href="#DejaVuSans-75" transform="translate(158.886719 0)"/>
       <use xlink:href="#DejaVuSans-64" transform="translate(222.265625 0)"/>
       <use xlink:href="#DejaVuSans-65" transform="translate(285.742188 0)"/>
       <use xlink:href="#DejaVuSans-2d" transform="translate(347.265625 0)"/>
       <use xlink:href="#DejaVuSans-33" transform="translate(383.349609 0)"/>
       <use xlink:href="#DejaVuSans-2e" transform="translate(446.972656 0)"/>
       <use xlink:href="#DejaVuSans-37" transform="translate(478.759766 0)"/>
       <use xlink:href="#DejaVuSans-2d" transform="translate(542.382812 0)"/>
       <use xlink:href="#DejaVuSans-53" transform="translate(578.466797 0)"/>
       <use xlink:href="#DejaVuSans-6f" transform="translate(641.943359 0)"/>
       <use xlink:href="#DejaVuSans-6e" transform="translate(703.125 0)"/>
       <use xlink:href="#DejaVuSans-6e" transform="translate(766.503906 0)"/>
       <use xlink:href="#DejaVuSans-65" transform="translate(829.882812 0)"/>
       <use xlink:href="#DejaVuSans-74" transform="translate(891.40625 0)"/>
      </g>
     </g>
    </g>
    <g id="xtick_2">
     <g id="line2d_2">
      <g>
       <use xlink:href="#m9a66c9f802" x="204.145346" y="313.66875" style="stroke: #000000; stroke-width: 0.8"/>
      </g>
     </g>
     <g id="text_2">
      <!-- Claude-3.5-Sonnet -->
      <g transform="translate(58.891729 451.949075) rotate(-40) scale(0.2 -0.2)">
       <defs>
        <path id="DejaVuSans-35" d="M 691 4666 
L 3169 4666 
L 3169 4134 
L 1269 4134 
L 1269 2991 
Q 1406 3038 1543 3061 
Q 1681 3084 1819 3084 
Q 2600 3084 3056 2656 
Q 3513 2228 3513 1497 
Q 3513 744 3044 326 
Q 2575 -91 1722 -91 
Q 1428 -91 1123 -41 
Q 819 9 494 109 
L 494 744 
Q 775 591 1075 516 
Q 1375 441 1709 441 
Q 2250 441 2565 725 
Q 2881 1009 2881 1497 
Q 2881 1984 2565 2268 
Q 2250 2553 1709 2553 
Q 1456 2553 1204 2497 
Q 953 2441 691 2322 
L 691 4666 
z
" transform="scale(0.015625)"/>
       </defs>
       <use xlink:href="#DejaVuSans-43"/>
       <use xlink:href="#DejaVuSans-6c" transform="translate(69.824219 0)"/>
       <use xlink:href="#DejaVuSans-61" transform="translate(97.607422 0)"/>
       <use xlink:href="#DejaVuSans-75" transform="translate(158.886719 0)"/>
       <use xlink:href="#DejaVuSans-64" transform="translate(222.265625 0)"/>
       <use xlink:href="#DejaVuSans-65" transform="translate(285.742188 0)"/>
       <use xlink:href="#DejaVuSans-2d" transform="translate(347.265625 0)"/>
       <use xlink:href="#DejaVuSans-33" transform="translate(383.349609 0)"/>
       <use xlink:href="#DejaVuSans-2e" transform="translate(446.972656 0)"/>
       <use xlink:href="#DejaVuSans-35" transform="translate(478.759766 0)"/>
       <use xlink:href="#DejaVuSans-2d" transform="translate(542.382812 0)"/>
       <use xlink:href="#DejaVuSans-53" transform="translate(578.466797 0)"/>
       <use xlink:href="#DejaVuSans-6f" transform="translate(641.943359 0)"/>
       <use xlink:href="#DejaVuSans-6e" transform="translate(703.125 0)"/>
       <use xlink:href="#DejaVuSans-6e" transform="translate(766.503906 0)"/>
       <use xlink:href="#DejaVuSans-65" transform="translate(829.882812 0)"/>
       <use xlink:href="#DejaVuSans-74" transform="translate(891.40625 0)"/>
      </g>
     </g>
    </g>
    <g id="xtick_3">
     <g id="line2d_3">
      <g>
       <use xlink:href="#m9a66c9f802" x="246.068711" y="313.66875" style="stroke: #000000; stroke-width: 0.8"/>
      </g>
     </g>
     <g id="text_3">
      <!-- DeepSeek-V3-0324 -->
      <g transform="translate(96.190101 455.829906) rotate(-40) scale(0.2 -0.2)">
       <defs>
        <path id="DejaVuSans-44" d="M 1259 4147 
L 1259 519 
L 2022 519 
Q 2988 519 3436 956 
Q 3884 1394 3884 2338 
Q 3884 3275 3436 3711 
Q 2988 4147 2022 4147 
L 1259 4147 
z
M 628 4666 
L 1925 4666 
Q 3281 4666 3915 4102 
Q 4550 3538 4550 2338 
Q 4550 1131 3912 565 
Q 3275 0 1925 0 
L 628 0 
L 628 4666 
z
" transform="scale(0.015625)"/>
        <path id="DejaVuSans-70" d="M 1159 525 
L 1159 -1331 
L 581 -1331 
L 581 3500 
L 1159 3500 
L 1159 2969 
Q 1341 3281 1617 3432 
Q 1894 3584 2278 3584 
Q 2916 3584 3314 3078 
Q 3713 2572 3713 1747 
Q 3713 922 3314 415 
Q 2916 -91 2278 -91 
Q 1894 -91 1617 61 
Q 1341 213 1159 525 
z
M 3116 1747 
Q 3116 2381 2855 2742 
Q 2594 3103 2138 3103 
Q 1681 3103 1420 2742 
Q 1159 2381 1159 1747 
Q 1159 1113 1420 752 
Q 1681 391 2138 391 
Q 2594 391 2855 752 
Q 3116 1113 3116 1747 
z
" transform="scale(0.015625)"/>
        <path id="DejaVuSans-6b" d="M 581 4863 
L 1159 4863 
L 1159 1991 
L 2875 3500 
L 3609 3500 
L 1753 1863 
L 3688 0 
L 2938 0 
L 1159 1709 
L 1159 0 
L 581 0 
L 581 4863 
z
" transform="scale(0.015625)"/>
        <path id="DejaVuSans-56" d="M 1831 0 
L 50 4666 
L 709 4666 
L 2188 738 
L 3669 4666 
L 4325 4666 
L 2547 0 
L 1831 0 
z
" transform="scale(0.015625)"/>
        <path id="DejaVuSans-30" d="M 2034 4250 
Q 1547 4250 1301 3770 
Q 1056 3291 1056 2328 
Q 1056 1369 1301 889 
Q 1547 409 2034 409 
Q 2525 409 2770 889 
Q 3016 1369 3016 2328 
Q 3016 3291 2770 3770 
Q 2525 4250 2034 4250 
z
M 2034 4750 
Q 2819 4750 3233 4129 
Q 3647 3509 3647 2328 
Q 3647 1150 3233 529 
Q 2819 -91 2034 -91 
Q 1250 -91 836 529 
Q 422 1150 422 2328 
Q 422 3509 836 4129 
Q 1250 4750 2034 4750 
z
" transform="scale(0.015625)"/>
        <path id="DejaVuSans-32" d="M 1228 531 
L 3431 531 
L 3431 0 
L 469 0 
L 469 531 
Q 828 903 1448 1529 
Q 2069 2156 2228 2338 
Q 2531 2678 2651 2914 
Q 2772 3150 2772 3378 
Q 2772 3750 2511 3984 
Q 2250 4219 1831 4219 
Q 1534 4219 1204 4116 
Q 875 4013 500 3803 
L 500 4441 
Q 881 4594 1212 4672 
Q 1544 4750 1819 4750 
Q 2544 4750 2975 4387 
Q 3406 4025 3406 3419 
Q 3406 3131 3298 2873 
Q 3191 2616 2906 2266 
Q 2828 2175 2409 1742 
Q 1991 1309 1228 531 
z
" transform="scale(0.015625)"/>
        <path id="DejaVuSans-34" d="M 2419 4116 
L 825 1625 
L 2419 1625 
L 2419 4116 
z
M 2253 4666 
L 3047 4666 
L 3047 1625 
L 3713 1625 
L 3713 1100 
L 3047 1100 
L 3047 0 
L 2419 0 
L 2419 1100 
L 313 1100 
L 313 1709 
L 2253 4666 
z
" transform="scale(0.015625)"/>
       </defs>
       <use xlink:href="#DejaVuSans-44"/>
       <use xlink:href="#DejaVuSans-65" transform="translate(77.001953 0)"/>
       <use xlink:href="#DejaVuSans-65" transform="translate(138.525391 0)"/>
       <use xlink:href="#DejaVuSans-70" transform="translate(200.048828 0)"/>
       <use xlink:href="#DejaVuSans-53" transform="translate(263.525391 0)"/>
       <use xlink:href="#DejaVuSans-65" transform="translate(327.001953 0)"/>
       <use xlink:href="#DejaVuSans-65" transform="translate(388.525391 0)"/>
       <use xlink:href="#DejaVuSans-6b" transform="translate(450.048828 0)"/>
       <use xlink:href="#DejaVuSans-2d" transform="translate(507.958984 0)"/>
       <use xlink:href="#DejaVuSans-56" transform="translate(538.167969 0)"/>
       <use xlink:href="#DejaVuSans-33" transform="translate(606.576172 0)"/>
       <use xlink:href="#DejaVuSans-2d" transform="translate(670.199219 0)"/>
       <use xlink:href="#DejaVuSans-30" transform="translate(706.283203 0)"/>
       <use xlink:href="#DejaVuSans-33" transform="translate(769.90625 0)"/>
       <use xlink:href="#DejaVuSans-32" transform="translate(833.529297 0)"/>
       <use xlink:href="#DejaVuSans-34" transform="translate(897.152344 0)"/>
      </g>
     </g>
    </g>
    <g id="xtick_4">
     <g id="line2d_4">
      <g>
       <use xlink:href="#m9a66c9f802" x="287.992077" y="313.66875" style="stroke: #000000; stroke-width: 0.8"/>
      </g>
     </g>
     <g id="text_4">
      <!-- Gemini-2.5-Flash -->
      <g transform="translate(155.306377 441.403341) rotate(-40) scale(0.2 -0.2)">
       <defs>
        <path id="DejaVuSans-47" d="M 3809 666 
L 3809 1919 
L 2778 1919 
L 2778 2438 
L 4434 2438 
L 4434 434 
Q 4069 175 3628 42 
Q 3188 -91 2688 -91 
Q 1594 -91 976 548 
Q 359 1188 359 2328 
Q 359 3472 976 4111 
Q 1594 4750 2688 4750 
Q 3144 4750 3555 4637 
Q 3966 4525 4313 4306 
L 4313 3634 
Q 3963 3931 3569 4081 
Q 3175 4231 2741 4231 
Q 1884 4231 1454 3753 
Q 1025 3275 1025 2328 
Q 1025 1384 1454 906 
Q 1884 428 2741 428 
Q 3075 428 3337 486 
Q 3600 544 3809 666 
z
" transform="scale(0.015625)"/>
        <path id="DejaVuSans-6d" d="M 3328 2828 
Q 3544 3216 3844 3400 
Q 4144 3584 4550 3584 
Q 5097 3584 5394 3201 
Q 5691 2819 5691 2113 
L 5691 0 
L 5113 0 
L 5113 2094 
Q 5113 2597 4934 2840 
Q 4756 3084 4391 3084 
Q 3944 3084 3684 2787 
Q 3425 2491 3425 1978 
L 3425 0 
L 2847 0 
L 2847 2094 
Q 2847 2600 2669 2842 
Q 2491 3084 2119 3084 
Q 1678 3084 1418 2786 
Q 1159 2488 1159 1978 
L 1159 0 
L 581 0 
L 581 3500 
L 1159 3500 
L 1159 2956 
Q 1356 3278 1631 3431 
Q 1906 3584 2284 3584 
Q 2666 3584 2933 3390 
Q 3200 3197 3328 2828 
z
" transform="scale(0.015625)"/>
        <path id="DejaVuSans-69" d="M 603 3500 
L 1178 3500 
L 1178 0 
L 603 0 
L 603 3500 
z
M 603 4863 
L 1178 4863 
L 1178 4134 
L 603 4134 
L 603 4863 
z
" transform="scale(0.015625)"/>
        <path id="DejaVuSans-46" d="M 628 4666 
L 3309 4666 
L 3309 4134 
L 1259 4134 
L 1259 2759 
L 3109 2759 
L 3109 2228 
L 1259 2228 
L 1259 0 
L 628 0 
L 628 4666 
z
" transform="scale(0.015625)"/>
        <path id="DejaVuSans-73" d="M 2834 3397 
L 2834 2853 
Q 2591 2978 2328 3040 
Q 2066 3103 1784 3103 
Q 1356 3103 1142 2972 
Q 928 2841 928 2578 
Q 928 2378 1081 2264 
Q 1234 2150 1697 2047 
L 1894 2003 
Q 2506 1872 2764 1633 
Q 3022 1394 3022 966 
Q 3022 478 2636 193 
Q 2250 -91 1575 -91 
Q 1294 -91 989 -36 
Q 684 19 347 128 
L 347 722 
Q 666 556 975 473 
Q 1284 391 1588 391 
Q 1994 391 2212 530 
Q 2431 669 2431 922 
Q 2431 1156 2273 1281 
Q 2116 1406 1581 1522 
L 1381 1569 
Q 847 1681 609 1914 
Q 372 2147 372 2553 
Q 372 3047 722 3315 
Q 1072 3584 1716 3584 
Q 2034 3584 2315 3537 
Q 2597 3491 2834 3397 
z
" transform="scale(0.015625)"/>
        <path id="DejaVuSans-68" d="M 3513 2113 
L 3513 0 
L 2938 0 
L 2938 2094 
Q 2938 2591 2744 2837 
Q 2550 3084 2163 3084 
Q 1697 3084 1428 2787 
Q 1159 2491 1159 1978 
L 1159 0 
L 581 0 
L 581 4863 
L 1159 4863 
L 1159 2956 
Q 1366 3272 1645 3428 
Q 1925 3584 2291 3584 
Q 2894 3584 3203 3211 
Q 3513 2838 3513 2113 
z
" transform="scale(0.015625)"/>
       </defs>
       <use xlink:href="#DejaVuSans-47"/>
       <use xlink:href="#DejaVuSans-65" transform="translate(77.490234 0)"/>
       <use xlink:href="#DejaVuSans-6d" transform="translate(139.013672 0)"/>
       <use xlink:href="#DejaVuSans-69" transform="translate(236.425781 0)"/>
       <use xlink:href="#DejaVuSans-6e" transform="translate(264.208984 0)"/>
       <use xlink:href="#DejaVuSans-69" transform="translate(327.587891 0)"/>
       <use xlink:href="#DejaVuSans-2d" transform="translate(355.371094 0)"/>
       <use xlink:href="#DejaVuSans-32" transform="translate(391.455078 0)"/>
       <use xlink:href="#DejaVuSans-2e" transform="translate(455.078125 0)"/>
       <use xlink:href="#DejaVuSans-35" transform="translate(486.865234 0)"/>
       <use xlink:href="#DejaVuSans-2d" transform="translate(550.488281 0)"/>
       <use xlink:href="#DejaVuSans-46" transform="translate(586.572266 0)"/>
       <use xlink:href="#DejaVuSans-6c" transform="translate(644.091797 0)"/>
       <use xlink:href="#DejaVuSans-61" transform="translate(671.875 0)"/>
       <use xlink:href="#DejaVuSans-73" transform="translate(733.154297 0)"/>
       <use xlink:href="#DejaVuSans-68" transform="translate(785.253906 0)"/>
      </g>
     </g>
    </g>
    <g id="xtick_5">
     <g id="line2d_5">
      <g>
       <use xlink:href="#m9a66c9f802" x="329.915443" y="313.66875" style="stroke: #000000; stroke-width: 0.8"/>
      </g>
     </g>
     <g id="text_5">
      <!-- Qwen3-32B -->
      <g transform="translate(238.232272 406.998134) rotate(-40) scale(0.2 -0.2)">
       <defs>
        <path id="DejaVuSans-51" d="M 2522 4238 
Q 1834 4238 1429 3725 
Q 1025 3213 1025 2328 
Q 1025 1447 1429 934 
Q 1834 422 2522 422 
Q 3209 422 3611 934 
Q 4013 1447 4013 2328 
Q 4013 3213 3611 3725 
Q 3209 4238 2522 4238 
z
M 3406 84 
L 4238 -825 
L 3475 -825 
L 2784 -78 
Q 2681 -84 2626 -87 
Q 2572 -91 2522 -91 
Q 1538 -91 948 567 
Q 359 1225 359 2328 
Q 359 3434 948 4092 
Q 1538 4750 2522 4750 
Q 3503 4750 4090 4092 
Q 4678 3434 4678 2328 
Q 4678 1516 4351 937 
Q 4025 359 3406 84 
z
" transform="scale(0.015625)"/>
        <path id="DejaVuSans-77" d="M 269 3500 
L 844 3500 
L 1563 769 
L 2278 3500 
L 2956 3500 
L 3675 769 
L 4391 3500 
L 4966 3500 
L 4050 0 
L 3372 0 
L 2619 2869 
L 1863 0 
L 1184 0 
L 269 3500 
z
" transform="scale(0.015625)"/>
        <path id="DejaVuSans-42" d="M 1259 2228 
L 1259 519 
L 2272 519 
Q 2781 519 3026 730 
Q 3272 941 3272 1375 
Q 3272 1813 3026 2020 
Q 2781 2228 2272 2228 
L 1259 2228 
z
M 1259 4147 
L 1259 2741 
L 2194 2741 
Q 2656 2741 2882 2914 
Q 3109 3088 3109 3444 
Q 3109 3797 2882 3972 
Q 2656 4147 2194 4147 
L 1259 4147 
z
M 628 4666 
L 2241 4666 
Q 2963 4666 3353 4366 
Q 3744 4066 3744 3513 
Q 3744 3084 3544 2831 
Q 3344 2578 2956 2516 
Q 3422 2416 3680 2098 
Q 3938 1781 3938 1306 
Q 3938 681 3513 340 
Q 3088 0 2303 0 
L 628 0 
L 628 4666 
z
" transform="scale(0.015625)"/>
       </defs>
       <use xlink:href="#DejaVuSans-51"/>
       <use xlink:href="#DejaVuSans-77" transform="translate(78.710938 0)"/>
       <use xlink:href="#DejaVuSans-65" transform="translate(160.498047 0)"/>
       <use xlink:href="#DejaVuSans-6e" transform="translate(222.021484 0)"/>
       <use xlink:href="#DejaVuSans-33" transform="translate(285.400391 0)"/>
       <use xlink:href="#DejaVuSans-2d" transform="translate(349.023438 0)"/>
       <use xlink:href="#DejaVuSans-33" transform="translate(385.107422 0)"/>
       <use xlink:href="#DejaVuSans-32" transform="translate(448.730469 0)"/>
       <use xlink:href="#DejaVuSans-42" transform="translate(512.353516 0)"/>
      </g>
     </g>
    </g>
    <g id="xtick_6">
     <g id="line2d_6">
      <g>
       <use xlink:href="#m9a66c9f802" x="371.838809" y="313.66875" style="stroke: #000000; stroke-width: 0.8"/>
      </g>
     </g>
     <g id="text_6">
      <!-- Qwen3-14B -->
      <g transform="translate(280.155638 406.998134) rotate(-40) scale(0.2 -0.2)">
       <defs>
        <path id="DejaVuSans-31" d="M 794 531 
L 1825 531 
L 1825 4091 
L 703 3866 
L 703 4441 
L 1819 4666 
L 2450 4666 
L 2450 531 
L 3481 531 
L 3481 0 
L 794 0 
L 794 531 
z
" transform="scale(0.015625)"/>
       </defs>
       <use xlink:href="#DejaVuSans-51"/>
       <use xlink:href="#DejaVuSans-77" transform="translate(78.710938 0)"/>
       <use xlink:href="#DejaVuSans-65" transform="translate(160.498047 0)"/>
       <use xlink:href="#DejaVuSans-6e" transform="translate(222.021484 0)"/>
       <use xlink:href="#DejaVuSans-33" transform="translate(285.400391 0)"/>
       <use xlink:href="#DejaVuSans-2d" transform="translate(349.023438 0)"/>
       <use xlink:href="#DejaVuSans-31" transform="translate(385.107422 0)"/>
       <use xlink:href="#DejaVuSans-34" transform="translate(448.730469 0)"/>
       <use xlink:href="#DejaVuSans-42" transform="translate(512.353516 0)"/>
      </g>
     </g>
    </g>
    <g id="xtick_7">
     <g id="line2d_7">
      <g>
       <use xlink:href="#m9a66c9f802" x="413.762175" y="313.66875" style="stroke: #000000; stroke-width: 0.8"/>
      </g>
     </g>
     <g id="text_7">
      <!-- Qwen3-8B -->
      <g transform="translate(331.826919 398.818662) rotate(-40) scale(0.2 -0.2)">
       <defs>
        <path id="DejaVuSans-38" d="M 2034 2216 
Q 1584 2216 1326 1975 
Q 1069 1734 1069 1313 
Q 1069 891 1326 650 
Q 1584 409 2034 409 
Q 2484 409 2743 651 
Q 3003 894 3003 1313 
Q 3003 1734 2745 1975 
Q 2488 2216 2034 2216 
z
M 1403 2484 
Q 997 2584 770 2862 
Q 544 3141 544 3541 
Q 544 4100 942 4425 
Q 1341 4750 2034 4750 
Q 2731 4750 3128 4425 
Q 3525 4100 3525 3541 
Q 3525 3141 3298 2862 
Q 3072 2584 2669 2484 
Q 3125 2378 3379 2068 
Q 3634 1759 3634 1313 
Q 3634 634 3220 271 
Q 2806 -91 2034 -91 
Q 1263 -91 848 271 
Q 434 634 434 1313 
Q 434 1759 690 2068 
Q 947 2378 1403 2484 
z
M 1172 3481 
Q 1172 3119 1398 2916 
Q 1625 2713 2034 2713 
Q 2441 2713 2670 2916 
Q 2900 3119 2900 3481 
Q 2900 3844 2670 4047 
Q 2441 4250 2034 4250 
Q 1625 4250 1398 4047 
Q 1172 3844 1172 3481 
z
" transform="scale(0.015625)"/>
       </defs>
       <use xlink:href="#DejaVuSans-51"/>
       <use xlink:href="#DejaVuSans-77" transform="translate(78.710938 0)"/>
       <use xlink:href="#DejaVuSans-65" transform="translate(160.498047 0)"/>
       <use xlink:href="#DejaVuSans-6e" transform="translate(222.021484 0)"/>
       <use xlink:href="#DejaVuSans-33" transform="translate(285.400391 0)"/>
       <use xlink:href="#DejaVuSans-2d" transform="translate(349.023438 0)"/>
       <use xlink:href="#DejaVuSans-38" transform="translate(385.107422 0)"/>
       <use xlink:href="#DejaVuSans-42" transform="translate(448.730469 0)"/>
      </g>
     </g>
    </g>
   </g>
   <g id="matplotlib.axis_2">
    <g id="ytick_1">
     <g id="line2d_8">
      <path d="M 135.810259 313.66875 
L 440.173895 313.66875 
" clip-path="url(#pf7af97e6a1)" style="fill: none; stroke-dasharray: 2.96,1.28; stroke-dashoffset: 0; stroke: #b0b0b0; stroke-opacity: 0.3; stroke-width: 0.8"/>
     </g>
     <g id="line2d_9">
      <defs>
       <path id="mdd963504c6" d="M 0 0 
L -3.5 0 
" style="stroke: #000000; stroke-width: 0.8"/>
      </defs>
      <g>
       <use xlink:href="#mdd963504c6" x="135.810259" y="313.66875" style="stroke: #000000; stroke-width: 0.8"/>
      </g>
     </g>
     <g id="text_8">
      <!-- 0 -->
      <g transform="translate(118.630259 319.7475) scale(0.16 -0.16)">
       <use xlink:href="#DejaVuSans-30"/>
      </g>
     </g>
    </g>
    <g id="ytick_2">
     <g id="line2d_10">
      <path d="M 135.810259 252.06875 
L 440.173895 252.06875 
" clip-path="url(#pf7af97e6a1)" style="fill: none; stroke-dasharray: 2.96,1.28; stroke-dashoffset: 0; stroke: #b0b0b0; stroke-opacity: 0.3; stroke-width: 0.8"/>
     </g>
     <g id="line2d_11">
      <g>
       <use xlink:href="#mdd963504c6" x="135.810259" y="252.06875" style="stroke: #000000; stroke-width: 0.8"/>
      </g>
     </g>
     <g id="text_9">
      <!-- 20 -->
      <g transform="translate(108.450259 258.1475) scale(0.16 -0.16)">
       <use xlink:href="#DejaVuSans-32"/>
       <use xlink:href="#DejaVuSans-30" transform="translate(63.623047 0)"/>
      </g>
     </g>
    </g>
    <g id="ytick_3">
     <g id="line2d_12">
      <path d="M 135.810259 190.46875 
L 440.173895 190.46875 
" clip-path="url(#pf7af97e6a1)" style="fill: none; stroke-dasharray: 2.96,1.28; stroke-dashoffset: 0; stroke: #b0b0b0; stroke-opacity: 0.3; stroke-width: 0.8"/>
     </g>
     <g id="line2d_13">
      <g>
       <use xlink:href="#mdd963504c6" x="135.810259" y="190.46875" style="stroke: #000000; stroke-width: 0.8"/>
      </g>
     </g>
     <g id="text_10">
      <!-- 40 -->
      <g transform="translate(108.450259 196.5475) scale(0.16 -0.16)">
       <use xlink:href="#DejaVuSans-34"/>
       <use xlink:href="#DejaVuSans-30" transform="translate(63.623047 0)"/>
      </g>
     </g>
    </g>
    <g id="ytick_4">
     <g id="line2d_14">
      <path d="M 135.810259 128.86875 
L 440.173895 128.86875 
" clip-path="url(#pf7af97e6a1)" style="fill: none; stroke-dasharray: 2.96,1.28; stroke-dashoffset: 0; stroke: #b0b0b0; stroke-opacity: 0.3; stroke-width: 0.8"/>
     </g>
     <g id="line2d_15">
      <g>
       <use xlink:href="#mdd963504c6" x="135.810259" y="128.86875" style="stroke: #000000; stroke-width: 0.8"/>
      </g>
     </g>
     <g id="text_11">
      <!-- 60 -->
      <g transform="translate(108.450259 134.9475) scale(0.16 -0.16)">
       <defs>
        <path id="DejaVuSans-36" d="M 2113 2584 
Q 1688 2584 1439 2293 
Q 1191 2003 1191 1497 
Q 1191 994 1439 701 
Q 1688 409 2113 409 
Q 2538 409 2786 701 
Q 3034 994 3034 1497 
Q 3034 2003 2786 2293 
Q 2538 2584 2113 2584 
z
M 3366 4563 
L 3366 3988 
Q 3128 4100 2886 4159 
Q 2644 4219 2406 4219 
Q 1781 4219 1451 3797 
Q 1122 3375 1075 2522 
Q 1259 2794 1537 2939 
Q 1816 3084 2150 3084 
Q 2853 3084 3261 2657 
Q 3669 2231 3669 1497 
Q 3669 778 3244 343 
Q 2819 -91 2113 -91 
Q 1303 -91 875 529 
Q 447 1150 447 2328 
Q 447 3434 972 4092 
Q 1497 4750 2381 4750 
Q 2619 4750 2861 4703 
Q 3103 4656 3366 4563 
z
" transform="scale(0.015625)"/>
       </defs>
       <use xlink:href="#DejaVuSans-36"/>
       <use xlink:href="#DejaVuSans-30" transform="translate(63.623047 0)"/>
      </g>
     </g>
    </g>
    <g id="ytick_5">
     <g id="line2d_16">
      <path d="M 135.810259 67.26875 
L 440.173895 67.26875 
" clip-path="url(#pf7af97e6a1)" style="fill: none; stroke-dasharray: 2.96,1.28; stroke-dashoffset: 0; stroke: #b0b0b0; stroke-opacity: 0.3; stroke-width: 0.8"/>
     </g>
     <g id="line2d_17">
      <g>
       <use xlink:href="#mdd963504c6" x="135.810259" y="67.26875" style="stroke: #000000; stroke-width: 0.8"/>
      </g>
     </g>
     <g id="text_12">
      <!-- 80 -->
      <g transform="translate(108.450259 73.3475) scale(0.16 -0.16)">
       <use xlink:href="#DejaVuSans-38"/>
       <use xlink:href="#DejaVuSans-30" transform="translate(63.623047 0)"/>
      </g>
     </g>
    </g>
   </g>
   <g id="patch_3">
    <path d="M 149.64497 313.66875 
L 174.798989 313.66875 
L 174.798989 46.284135 
L 149.64497 46.284135 
z
" clip-path="url(#pf7af97e6a1)" style="fill: url(#hbfcdd73615); opacity: 0.7; stroke: #800080; stroke-linejoin: miter"/>
   </g>
   <g id="patch_4">
    <path d="M 191.568336 313.66875 
L 216.722355 313.66875 
L 216.722355 49.66875 
L 191.568336 49.66875 
z
" clip-path="url(#pf7af97e6a1)" style="fill: url(#hbfcdd73615); opacity: 0.7; stroke: #800080; stroke-linejoin: miter"/>
   </g>
   <g id="patch_5">
    <path d="M 233.491702 313.66875 
L 258.645721 313.66875 
L 258.645721 59.822596 
L 233.491702 59.822596 
z
" clip-path="url(#pf7af97e6a1)" style="fill: url(#hbfcdd73615); opacity: 0.7; stroke: #800080; stroke-linejoin: miter"/>
   </g>
   <g id="patch_6">
    <path d="M 275.415068 313.66875 
L 300.569087 313.66875 
L 300.569087 63.207212 
L 275.415068 63.207212 
z
" clip-path="url(#pf7af97e6a1)" style="fill: url(#hbfcdd73615); opacity: 0.7; stroke: #800080; stroke-linejoin: miter"/>
   </g>
   <g id="patch_7">
    <path d="M 317.338433 313.66875 
L 342.492453 313.66875 
L 342.492453 110.591827 
L 317.338433 110.591827 
z
" clip-path="url(#pf7af97e6a1)" style="fill: url(#hbfcdd73615); opacity: 0.7; stroke: #800080; stroke-linejoin: miter"/>
   </g>
   <g id="patch_8">
    <path d="M 359.261799 313.66875 
L 384.415819 313.66875 
L 384.415819 127.514904 
L 359.261799 127.514904 
z
" clip-path="url(#pf7af97e6a1)" style="fill: url(#hbfcdd73615); opacity: 0.7; stroke: #800080; stroke-linejoin: miter"/>
   </g>
   <g id="patch_9">
    <path d="M 401.185165 313.66875 
L 426.339185 313.66875 
L 426.339185 170.44875 
L 401.185165 170.44875 
z
" clip-path="url(#pf7af97e6a1)" style="fill: url(#hbfcdd73615); opacity: 0.7; stroke: #800080; stroke-linejoin: miter"/>
   </g>
   <g id="patch_10">
    <path d="M 135.810259 313.66875 
L 135.810259 36.46875 
" style="fill: none; stroke: #000000; stroke-width: 0.8; stroke-linejoin: miter; stroke-linecap: square"/>
   </g>
   <g id="patch_11">
    <path d="M 135.810259 313.66875 
L 440.173895 313.66875 
" style="fill: none; stroke: #000000; stroke-width: 0.8; stroke-linejoin: miter; stroke-linecap: square"/>
   </g>
   <g id="patch_12">
    <path d="M 317.338433 110.591827 
L 342.492453 110.591827 
L 342.492453 59.822596 
L 317.338433 59.822596 
z
" clip-path="url(#pf7af97e6a1)" style="fill: #e6e6fa; stroke: #800080; stroke-linejoin: miter"/>
   </g>
   <g id="patch_13">
    <path d="M 359.261799 127.514904 
L 384.415819 127.514904 
L 384.415819 86.899519 
L 359.261799 86.899519 
z
" clip-path="url(#pf7af97e6a1)" style="fill: #e6e6fa; stroke: #800080; stroke-linejoin: miter"/>
   </g>
   <g id="patch_14">
    <path d="M 401.185165 170.44875 
L 426.339185 170.44875 
L 426.339185 113.976442 
L 401.185165 113.976442 
z
" clip-path="url(#pf7af97e6a1)" style="fill: #e6e6fa; stroke: #800080; stroke-linejoin: miter"/>
   </g>
   <g id="text_13">
    <!-- InterCode-CTF -->
    <g transform="translate(167.054577 30.229687) scale(0.3 -0.3)">
     <defs>
      <path id="DejaVuSans-Bold-49" d="M 588 4666 
L 1791 4666 
L 1791 0 
L 588 0 
L 588 4666 
z
" transform="scale(0.015625)"/>
      <path id="DejaVuSans-Bold-6e" d="M 4056 2131 
L 4056 0 
L 2931 0 
L 2931 347 
L 2931 1631 
Q 2931 2084 2911 2256 
Q 2891 2428 2841 2509 
Q 2775 2619 2662 2680 
Q 2550 2741 2406 2741 
Q 2056 2741 1856 2470 
Q 1656 2200 1656 1722 
L 1656 0 
L 538 0 
L 538 3500 
L 1656 3500 
L 1656 2988 
Q 1909 3294 2193 3439 
Q 2478 3584 2822 3584 
Q 3428 3584 3742 3212 
Q 4056 2841 4056 2131 
z
" transform="scale(0.015625)"/>
      <path id="DejaVuSans-Bold-74" d="M 1759 4494 
L 1759 3500 
L 2913 3500 
L 2913 2700 
L 1759 2700 
L 1759 1216 
Q 1759 972 1856 886 
Q 1953 800 2241 800 
L 2816 800 
L 2816 0 
L 1856 0 
Q 1194 0 917 276 
Q 641 553 641 1216 
L 641 2700 
L 84 2700 
L 84 3500 
L 641 3500 
L 641 4494 
L 1759 4494 
z
" transform="scale(0.015625)"/>
      <path id="DejaVuSans-Bold-65" d="M 4031 1759 
L 4031 1441 
L 1416 1441 
Q 1456 1047 1700 850 
Q 1944 653 2381 653 
Q 2734 653 3104 758 
Q 3475 863 3866 1075 
L 3866 213 
Q 3469 63 3072 -14 
Q 2675 -91 2278 -91 
Q 1328 -91 801 392 
Q 275 875 275 1747 
Q 275 2603 792 3093 
Q 1309 3584 2216 3584 
Q 3041 3584 3536 3087 
Q 4031 2591 4031 1759 
z
M 2881 2131 
Q 2881 2450 2695 2645 
Q 2509 2841 2209 2841 
Q 1884 2841 1681 2658 
Q 1478 2475 1428 2131 
L 2881 2131 
z
" transform="scale(0.015625)"/>
      <path id="DejaVuSans-Bold-72" d="M 3138 2547 
Q 2991 2616 2845 2648 
Q 2700 2681 2553 2681 
Q 2122 2681 1889 2404 
Q 1656 2128 1656 1613 
L 1656 0 
L 538 0 
L 538 3500 
L 1656 3500 
L 1656 2925 
Q 1872 3269 2151 3426 
Q 2431 3584 2822 3584 
Q 2878 3584 2943 3579 
Q 3009 3575 3134 3559 
L 3138 2547 
z
" transform="scale(0.015625)"/>
      <path id="DejaVuSans-Bold-43" d="M 4288 256 
Q 3956 84 3597 -3 
Q 3238 -91 2847 -91 
Q 1681 -91 1000 561 
Q 319 1213 319 2328 
Q 319 3447 1000 4098 
Q 1681 4750 2847 4750 
Q 3238 4750 3597 4662 
Q 3956 4575 4288 4403 
L 4288 3438 
Q 3953 3666 3628 3772 
Q 3303 3878 2944 3878 
Q 2300 3878 1931 3465 
Q 1563 3053 1563 2328 
Q 1563 1606 1931 1193 
Q 2300 781 2944 781 
Q 3303 781 3628 887 
Q 3953 994 4288 1222 
L 4288 256 
z
" transform="scale(0.015625)"/>
      <path id="DejaVuSans-Bold-6f" d="M 2203 2784 
Q 1831 2784 1636 2517 
Q 1441 2250 1441 1747 
Q 1441 1244 1636 976 
Q 1831 709 2203 709 
Q 2569 709 2762 976 
Q 2956 1244 2956 1747 
Q 2956 2250 2762 2517 
Q 2569 2784 2203 2784 
z
M 2203 3584 
Q 3106 3584 3614 3096 
Q 4122 2609 4122 1747 
Q 4122 884 3614 396 
Q 3106 -91 2203 -91 
Q 1297 -91 786 396 
Q 275 884 275 1747 
Q 275 2609 786 3096 
Q 1297 3584 2203 3584 
z
" transform="scale(0.015625)"/>
      <path id="DejaVuSans-Bold-64" d="M 2919 2988 
L 2919 4863 
L 4044 4863 
L 4044 0 
L 2919 0 
L 2919 506 
Q 2688 197 2409 53 
Q 2131 -91 1766 -91 
Q 1119 -91 703 423 
Q 288 938 288 1747 
Q 288 2556 703 3070 
Q 1119 3584 1766 3584 
Q 2128 3584 2408 3439 
Q 2688 3294 2919 2988 
z
M 2181 722 
Q 2541 722 2730 984 
Q 2919 1247 2919 1747 
Q 2919 2247 2730 2509 
Q 2541 2772 2181 2772 
Q 1825 2772 1636 2509 
Q 1447 2247 1447 1747 
Q 1447 1247 1636 984 
Q 1825 722 2181 722 
z
" transform="scale(0.015625)"/>
      <path id="DejaVuSans-Bold-2d" d="M 347 2297 
L 2309 2297 
L 2309 1388 
L 347 1388 
L 347 2297 
z
" transform="scale(0.015625)"/>
      <path id="DejaVuSans-Bold-54" d="M 31 4666 
L 4331 4666 
L 4331 3756 
L 2784 3756 
L 2784 0 
L 1581 0 
L 1581 3756 
L 31 3756 
L 31 4666 
z
" transform="scale(0.015625)"/>
      <path id="DejaVuSans-Bold-46" d="M 588 4666 
L 3834 4666 
L 3834 3756 
L 1791 3756 
L 1791 2888 
L 3713 2888 
L 3713 1978 
L 1791 1978 
L 1791 0 
L 588 0 
L 588 4666 
z
" transform="scale(0.015625)"/>
     </defs>
     <use xlink:href="#DejaVuSans-Bold-49"/>
     <use xlink:href="#DejaVuSans-Bold-6e" transform="translate(37.207031 0)"/>
     <use xlink:href="#DejaVuSans-Bold-74" transform="translate(108.398438 0)"/>
     <use xlink:href="#DejaVuSans-Bold-65" transform="translate(156.201172 0)"/>
     <use xlink:href="#DejaVuSans-Bold-72" transform="translate(224.023438 0)"/>
     <use xlink:href="#DejaVuSans-Bold-43" transform="translate(273.339844 0)"/>
     <use xlink:href="#DejaVuSans-Bold-6f" transform="translate(346.728516 0)"/>
     <use xlink:href="#DejaVuSans-Bold-64" transform="translate(415.429688 0)"/>
     <use xlink:href="#DejaVuSans-Bold-65" transform="translate(487.011719 0)"/>
     <use xlink:href="#DejaVuSans-Bold-2d" transform="translate(554.833984 0)"/>
     <use xlink:href="#DejaVuSans-Bold-43" transform="translate(596.337891 0)"/>
     <use xlink:href="#DejaVuSans-Bold-54" transform="translate(669.726562 0)"/>
     <use xlink:href="#DejaVuSans-Bold-46" transform="translate(737.939453 0)"/>
    </g>
   </g>
   <g id="line2d_18">
    <path d="M 308.95376 313.66875 
L 308.95376 36.46875 
" clip-path="url(#pf7af97e6a1)" style="fill: none; stroke-dasharray: 18.5,8; stroke-dashoffset: 0; stroke: #808080; stroke-opacity: 0.8; stroke-width: 5"/>
   </g>
  </g>
  <g id="axes_2">
   <g id="patch_15">
    <path d="M 485.828441 313.66875 
L 790.192077 313.66875 
L 790.192077 36.46875 
L 485.828441 36.46875 
z
" style="fill: #e6f3ff; opacity: 0.3"/>
   </g>
   <g id="matplotlib.axis_3">
    <g id="xtick_8">
     <g id="line2d_19">
      <g>
       <use xlink:href="#m9a66c9f802" x="512.240161" y="313.66875" style="stroke: #000000; stroke-width: 0.8"/>
      </g>
     </g>
     <g id="text_14">
      <!-- Claude-3.7-Sonnet -->
      <g transform="translate(366.986545 451.949075) rotate(-40) scale(0.2 -0.2)">
       <use xlink:href="#DejaVuSans-43"/>
       <use xlink:href="#DejaVuSans-6c" transform="translate(69.824219 0)"/>
       <use xlink:href="#DejaVuSans-61" transform="translate(97.607422 0)"/>
       <use xlink:href="#DejaVuSans-75" transform="translate(158.886719 0)"/>
       <use xlink:href="#DejaVuSans-64" transform="translate(222.265625 0)"/>
       <use xlink:href="#DejaVuSans-65" transform="translate(285.742188 0)"/>
       <use xlink:href="#DejaVuSans-2d" transform="translate(347.265625 0)"/>
       <use xlink:href="#DejaVuSans-33" transform="translate(383.349609 0)"/>
       <use xlink:href="#DejaVuSans-2e" transform="translate(446.972656 0)"/>
       <use xlink:href="#DejaVuSans-37" transform="translate(478.759766 0)"/>
       <use xlink:href="#DejaVuSans-2d" transform="translate(542.382812 0)"/>
       <use xlink:href="#DejaVuSans-53" transform="translate(578.466797 0)"/>
       <use xlink:href="#DejaVuSans-6f" transform="translate(641.943359 0)"/>
       <use xlink:href="#DejaVuSans-6e" transform="translate(703.125 0)"/>
       <use xlink:href="#DejaVuSans-6e" transform="translate(766.503906 0)"/>
       <use xlink:href="#DejaVuSans-65" transform="translate(829.882812 0)"/>
       <use xlink:href="#DejaVuSans-74" transform="translate(891.40625 0)"/>
      </g>
     </g>
    </g>
    <g id="xtick_9">
     <g id="line2d_20">
      <g>
       <use xlink:href="#m9a66c9f802" x="554.163527" y="313.66875" style="stroke: #000000; stroke-width: 0.8"/>
      </g>
     </g>
     <g id="text_15">
      <!-- Claude-3.5-Sonnet -->
      <g transform="translate(408.909911 451.949075) rotate(-40) scale(0.2 -0.2)">
       <use xlink:href="#DejaVuSans-43"/>
       <use xlink:href="#DejaVuSans-6c" transform="translate(69.824219 0)"/>
       <use xlink:href="#DejaVuSans-61" transform="translate(97.607422 0)"/>
       <use xlink:href="#DejaVuSans-75" transform="translate(158.886719 0)"/>
       <use xlink:href="#DejaVuSans-64" transform="translate(222.265625 0)"/>
       <use xlink:href="#DejaVuSans-65" transform="translate(285.742188 0)"/>
       <use xlink:href="#DejaVuSans-2d" transform="translate(347.265625 0)"/>
       <use xlink:href="#DejaVuSans-33" transform="translate(383.349609 0)"/>
       <use xlink:href="#DejaVuSans-2e" transform="translate(446.972656 0)"/>
       <use xlink:href="#DejaVuSans-35" transform="translate(478.759766 0)"/>
       <use xlink:href="#DejaVuSans-2d" transform="translate(542.382812 0)"/>
       <use xlink:href="#DejaVuSans-53" transform="translate(578.466797 0)"/>
       <use xlink:href="#DejaVuSans-6f" transform="translate(641.943359 0)"/>
       <use xlink:href="#DejaVuSans-6e" transform="translate(703.125 0)"/>
       <use xlink:href="#DejaVuSans-6e" transform="translate(766.503906 0)"/>
       <use xlink:href="#DejaVuSans-65" transform="translate(829.882812 0)"/>
       <use xlink:href="#DejaVuSans-74" transform="translate(891.40625 0)"/>
      </g>
     </g>
    </g>
    <g id="xtick_10">
     <g id="line2d_21">
      <g>
       <use xlink:href="#m9a66c9f802" x="596.086893" y="313.66875" style="stroke: #000000; stroke-width: 0.8"/>
      </g>
     </g>
     <g id="text_16">
      <!-- Gemini-2.5-Flash -->
      <g transform="translate(463.401193 441.403341) rotate(-40) scale(0.2 -0.2)">
       <use xlink:href="#DejaVuSans-47"/>
       <use xlink:href="#DejaVuSans-65" transform="translate(77.490234 0)"/>
       <use xlink:href="#DejaVuSans-6d" transform="translate(139.013672 0)"/>
       <use xlink:href="#DejaVuSans-69" transform="translate(236.425781 0)"/>
       <use xlink:href="#DejaVuSans-6e" transform="translate(264.208984 0)"/>
       <use xlink:href="#DejaVuSans-69" transform="translate(327.587891 0)"/>
       <use xlink:href="#DejaVuSans-2d" transform="translate(355.371094 0)"/>
       <use xlink:href="#DejaVuSans-32" transform="translate(391.455078 0)"/>
       <use xlink:href="#DejaVuSans-2e" transform="translate(455.078125 0)"/>
       <use xlink:href="#DejaVuSans-35" transform="translate(486.865234 0)"/>
       <use xlink:href="#DejaVuSans-2d" transform="translate(550.488281 0)"/>
       <use xlink:href="#DejaVuSans-46" transform="translate(586.572266 0)"/>
       <use xlink:href="#DejaVuSans-6c" transform="translate(644.091797 0)"/>
       <use xlink:href="#DejaVuSans-61" transform="translate(671.875 0)"/>
       <use xlink:href="#DejaVuSans-73" transform="translate(733.154297 0)"/>
       <use xlink:href="#DejaVuSans-68" transform="translate(785.253906 0)"/>
      </g>
     </g>
    </g>
    <g id="xtick_11">
     <g id="line2d_22">
      <g>
       <use xlink:href="#m9a66c9f802" x="638.010259" y="313.66875" style="stroke: #000000; stroke-width: 0.8"/>
      </g>
     </g>
     <g id="text_17">
      <!-- DeepSeek-V3-0324 -->
      <g transform="translate(488.131649 455.829906) rotate(-40) scale(0.2 -0.2)">
       <use xlink:href="#DejaVuSans-44"/>
       <use xlink:href="#DejaVuSans-65" transform="translate(77.001953 0)"/>
       <use xlink:href="#DejaVuSans-65" transform="translate(138.525391 0)"/>
       <use xlink:href="#DejaVuSans-70" transform="translate(200.048828 0)"/>
       <use xlink:href="#DejaVuSans-53" transform="translate(263.525391 0)"/>
       <use xlink:href="#DejaVuSans-65" transform="translate(327.001953 0)"/>
       <use xlink:href="#DejaVuSans-65" transform="translate(388.525391 0)"/>
       <use xlink:href="#DejaVuSans-6b" transform="translate(450.048828 0)"/>
       <use xlink:href="#DejaVuSans-2d" transform="translate(507.958984 0)"/>
       <use xlink:href="#DejaVuSans-56" transform="translate(538.167969 0)"/>
       <use xlink:href="#DejaVuSans-33" transform="translate(606.576172 0)"/>
       <use xlink:href="#DejaVuSans-2d" transform="translate(670.199219 0)"/>
       <use xlink:href="#DejaVuSans-30" transform="translate(706.283203 0)"/>
       <use xlink:href="#DejaVuSans-33" transform="translate(769.90625 0)"/>
       <use xlink:href="#DejaVuSans-32" transform="translate(833.529297 0)"/>
       <use xlink:href="#DejaVuSans-34" transform="translate(897.152344 0)"/>
      </g>
     </g>
    </g>
    <g id="xtick_12">
     <g id="line2d_23">
      <g>
       <use xlink:href="#m9a66c9f802" x="679.933625" y="313.66875" style="stroke: #000000; stroke-width: 0.8"/>
      </g>
     </g>
     <g id="text_18">
      <!-- Qwen3-32B -->
      <g transform="translate(588.250454 406.998134) rotate(-40) scale(0.2 -0.2)">
       <use xlink:href="#DejaVuSans-51"/>
       <use xlink:href="#DejaVuSans-77" transform="translate(78.710938 0)"/>
       <use xlink:href="#DejaVuSans-65" transform="translate(160.498047 0)"/>
       <use xlink:href="#DejaVuSans-6e" transform="translate(222.021484 0)"/>
       <use xlink:href="#DejaVuSans-33" transform="translate(285.400391 0)"/>
       <use xlink:href="#DejaVuSans-2d" transform="translate(349.023438 0)"/>
       <use xlink:href="#DejaVuSans-33" transform="translate(385.107422 0)"/>
       <use xlink:href="#DejaVuSans-32" transform="translate(448.730469 0)"/>
       <use xlink:href="#DejaVuSans-42" transform="translate(512.353516 0)"/>
      </g>
     </g>
    </g>
    <g id="xtick_13">
     <g id="line2d_24">
      <g>
       <use xlink:href="#m9a66c9f802" x="721.856991" y="313.66875" style="stroke: #000000; stroke-width: 0.8"/>
      </g>
     </g>
     <g id="text_19">
      <!-- Qwen3-14B -->
      <g transform="translate(630.17382 406.998134) rotate(-40) scale(0.2 -0.2)">
       <use xlink:href="#DejaVuSans-51"/>
       <use xlink:href="#DejaVuSans-77" transform="translate(78.710938 0)"/>
       <use xlink:href="#DejaVuSans-65" transform="translate(160.498047 0)"/>
       <use xlink:href="#DejaVuSans-6e" transform="translate(222.021484 0)"/>
       <use xlink:href="#DejaVuSans-33" transform="translate(285.400391 0)"/>
       <use xlink:href="#DejaVuSans-2d" transform="translate(349.023438 0)"/>
       <use xlink:href="#DejaVuSans-31" transform="translate(385.107422 0)"/>
       <use xlink:href="#DejaVuSans-34" transform="translate(448.730469 0)"/>
       <use xlink:href="#DejaVuSans-42" transform="translate(512.353516 0)"/>
      </g>
     </g>
    </g>
    <g id="xtick_14">
     <g id="line2d_25">
      <g>
       <use xlink:href="#m9a66c9f802" x="763.780357" y="313.66875" style="stroke: #000000; stroke-width: 0.8"/>
      </g>
     </g>
     <g id="text_20">
      <!-- Qwen3-8B -->
      <g transform="translate(681.845101 398.818662) rotate(-40) scale(0.2 -0.2)">
       <use xlink:href="#DejaVuSans-51"/>
       <use xlink:href="#DejaVuSans-77" transform="translate(78.710938 0)"/>
       <use xlink:href="#DejaVuSans-65" transform="translate(160.498047 0)"/>
       <use xlink:href="#DejaVuSans-6e" transform="translate(222.021484 0)"/>
       <use xlink:href="#DejaVuSans-33" transform="translate(285.400391 0)"/>
       <use xlink:href="#DejaVuSans-2d" transform="translate(349.023438 0)"/>
       <use xlink:href="#DejaVuSans-38" transform="translate(385.107422 0)"/>
       <use xlink:href="#DejaVuSans-42" transform="translate(448.730469 0)"/>
      </g>
     </g>
    </g>
   </g>
   <g id="matplotlib.axis_4">
    <g id="ytick_6">
     <g id="line2d_26">
      <path d="M 485.828441 313.66875 
L 790.192077 313.66875 
" clip-path="url(#p401b4e59d4)" style="fill: none; stroke-dasharray: 2.96,1.28; stroke-dashoffset: 0; stroke: #b0b0b0; stroke-opacity: 0.3; stroke-width: 0.8"/>
     </g>
     <g id="line2d_27">
      <g>
       <use xlink:href="#mdd963504c6" x="485.828441" y="313.66875" style="stroke: #000000; stroke-width: 0.8"/>
      </g>
     </g>
     <g id="text_21">
      <!-- 0.0 -->
      <g transform="translate(453.383441 319.7475) scale(0.16 -0.16)">
       <use xlink:href="#DejaVuSans-30"/>
       <use xlink:href="#DejaVuSans-2e" transform="translate(63.623047 0)"/>
       <use xlink:href="#DejaVuSans-30" transform="translate(95.410156 0)"/>
      </g>
     </g>
    </g>
    <g id="ytick_7">
     <g id="line2d_28">
      <path d="M 485.828441 279.01875 
L 790.192077 279.01875 
" clip-path="url(#p401b4e59d4)" style="fill: none; stroke-dasharray: 2.96,1.28; stroke-dashoffset: 0; stroke: #b0b0b0; stroke-opacity: 0.3; stroke-width: 0.8"/>
     </g>
     <g id="line2d_29">
      <g>
       <use xlink:href="#mdd963504c6" x="485.828441" y="279.01875" style="stroke: #000000; stroke-width: 0.8"/>
      </g>
     </g>
     <g id="text_22">
      <!-- 2.5 -->
      <g transform="translate(453.383441 285.0975) scale(0.16 -0.16)">
       <use xlink:href="#DejaVuSans-32"/>
       <use xlink:href="#DejaVuSans-2e" transform="translate(63.623047 0)"/>
       <use xlink:href="#DejaVuSans-35" transform="translate(95.410156 0)"/>
      </g>
     </g>
    </g>
    <g id="ytick_8">
     <g id="line2d_30">
      <path d="M 485.828441 244.36875 
L 790.192077 244.36875 
" clip-path="url(#p401b4e59d4)" style="fill: none; stroke-dasharray: 2.96,1.28; stroke-dashoffset: 0; stroke: #b0b0b0; stroke-opacity: 0.3; stroke-width: 0.8"/>
     </g>
     <g id="line2d_31">
      <g>
       <use xlink:href="#mdd963504c6" x="485.828441" y="244.36875" style="stroke: #000000; stroke-width: 0.8"/>
      </g>
     </g>
     <g id="text_23">
      <!-- 5.0 -->
      <g transform="translate(453.383441 250.4475) scale(0.16 -0.16)">
       <use xlink:href="#DejaVuSans-35"/>
       <use xlink:href="#DejaVuSans-2e" transform="translate(63.623047 0)"/>
       <use xlink:href="#DejaVuSans-30" transform="translate(95.410156 0)"/>
      </g>
     </g>
    </g>
    <g id="ytick_9">
     <g id="line2d_32">
      <path d="M 485.828441 209.71875 
L 790.192077 209.71875 
" clip-path="url(#p401b4e59d4)" style="fill: none; stroke-dasharray: 2.96,1.28; stroke-dashoffset: 0; stroke: #b0b0b0; stroke-opacity: 0.3; stroke-width: 0.8"/>
     </g>
     <g id="line2d_33">
      <g>
       <use xlink:href="#mdd963504c6" x="485.828441" y="209.71875" style="stroke: #000000; stroke-width: 0.8"/>
      </g>
     </g>
     <g id="text_24">
      <!-- 7.5 -->
      <g transform="translate(453.383441 215.7975) scale(0.16 -0.16)">
       <use xlink:href="#DejaVuSans-37"/>
       <use xlink:href="#DejaVuSans-2e" transform="translate(63.623047 0)"/>
       <use xlink:href="#DejaVuSans-35" transform="translate(95.410156 0)"/>
      </g>
     </g>
    </g>
    <g id="ytick_10">
     <g id="line2d_34">
      <path d="M 485.828441 175.06875 
L 790.192077 175.06875 
" clip-path="url(#p401b4e59d4)" style="fill: none; stroke-dasharray: 2.96,1.28; stroke-dashoffset: 0; stroke: #b0b0b0; stroke-opacity: 0.3; stroke-width: 0.8"/>
     </g>
     <g id="line2d_35">
      <g>
       <use xlink:href="#mdd963504c6" x="485.828441" y="175.06875" style="stroke: #000000; stroke-width: 0.8"/>
      </g>
     </g>
     <g id="text_25">
      <!-- 10.0 -->
      <g transform="translate(443.203441 181.1475) scale(0.16 -0.16)">
       <use xlink:href="#DejaVuSans-31"/>
       <use xlink:href="#DejaVuSans-30" transform="translate(63.623047 0)"/>
       <use xlink:href="#DejaVuSans-2e" transform="translate(127.246094 0)"/>
       <use xlink:href="#DejaVuSans-30" transform="translate(159.033203 0)"/>
      </g>
     </g>
    </g>
    <g id="ytick_11">
     <g id="line2d_36">
      <path d="M 485.828441 140.41875 
L 790.192077 140.41875 
" clip-path="url(#p401b4e59d4)" style="fill: none; stroke-dasharray: 2.96,1.28; stroke-dashoffset: 0; stroke: #b0b0b0; stroke-opacity: 0.3; stroke-width: 0.8"/>
     </g>
     <g id="line2d_37">
      <g>
       <use xlink:href="#mdd963504c6" x="485.828441" y="140.41875" style="stroke: #000000; stroke-width: 0.8"/>
      </g>
     </g>
     <g id="text_26">
      <!-- 12.5 -->
      <g transform="translate(443.203441 146.4975) scale(0.16 -0.16)">
       <use xlink:href="#DejaVuSans-31"/>
       <use xlink:href="#DejaVuSans-32" transform="translate(63.623047 0)"/>
       <use xlink:href="#DejaVuSans-2e" transform="translate(127.246094 0)"/>
       <use xlink:href="#DejaVuSans-35" transform="translate(159.033203 0)"/>
      </g>
     </g>
    </g>
    <g id="ytick_12">
     <g id="line2d_38">
      <path d="M 485.828441 105.76875 
L 790.192077 105.76875 
" clip-path="url(#p401b4e59d4)" style="fill: none; stroke-dasharray: 2.96,1.28; stroke-dashoffset: 0; stroke: #b0b0b0; stroke-opacity: 0.3; stroke-width: 0.8"/>
     </g>
     <g id="line2d_39">
      <g>
       <use xlink:href="#mdd963504c6" x="485.828441" y="105.76875" style="stroke: #000000; stroke-width: 0.8"/>
      </g>
     </g>
     <g id="text_27">
      <!-- 15.0 -->
      <g transform="translate(443.203441 111.8475) scale(0.16 -0.16)">
       <use xlink:href="#DejaVuSans-31"/>
       <use xlink:href="#DejaVuSans-35" transform="translate(63.623047 0)"/>
       <use xlink:href="#DejaVuSans-2e" transform="translate(127.246094 0)"/>
       <use xlink:href="#DejaVuSans-30" transform="translate(159.033203 0)"/>
      </g>
     </g>
    </g>
    <g id="ytick_13">
     <g id="line2d_40">
      <path d="M 485.828441 71.11875 
L 790.192077 71.11875 
" clip-path="url(#p401b4e59d4)" style="fill: none; stroke-dasharray: 2.96,1.28; stroke-dashoffset: 0; stroke: #b0b0b0; stroke-opacity: 0.3; stroke-width: 0.8"/>
     </g>
     <g id="line2d_41">
      <g>
       <use xlink:href="#mdd963504c6" x="485.828441" y="71.11875" style="stroke: #000000; stroke-width: 0.8"/>
      </g>
     </g>
     <g id="text_28">
      <!-- 17.5 -->
      <g transform="translate(443.203441 77.1975) scale(0.16 -0.16)">
       <use xlink:href="#DejaVuSans-31"/>
       <use xlink:href="#DejaVuSans-37" transform="translate(63.623047 0)"/>
       <use xlink:href="#DejaVuSans-2e" transform="translate(127.246094 0)"/>
       <use xlink:href="#DejaVuSans-35" transform="translate(159.033203 0)"/>
      </g>
     </g>
    </g>
    <g id="ytick_14">
     <g id="line2d_42">
      <path d="M 485.828441 36.46875 
L 790.192077 36.46875 
" clip-path="url(#p401b4e59d4)" style="fill: none; stroke-dasharray: 2.96,1.28; stroke-dashoffset: 0; stroke: #b0b0b0; stroke-opacity: 0.3; stroke-width: 0.8"/>
     </g>
     <g id="line2d_43">
      <g>
       <use xlink:href="#mdd963504c6" x="485.828441" y="36.46875" style="stroke: #000000; stroke-width: 0.8"/>
      </g>
     </g>
     <g id="text_29">
      <!-- 20.0 -->
      <g transform="translate(443.203441 42.5475) scale(0.16 -0.16)">
       <use xlink:href="#DejaVuSans-32"/>
       <use xlink:href="#DejaVuSans-30" transform="translate(63.623047 0)"/>
       <use xlink:href="#DejaVuSans-2e" transform="translate(127.246094 0)"/>
       <use xlink:href="#DejaVuSans-30" transform="translate(159.033203 0)"/>
      </g>
     </g>
    </g>
   </g>
   <g id="patch_16">
    <path d="M 499.663152 313.66875 
L 524.817171 313.66875 
L 524.817171 61.0125 
L 499.663152 61.0125 
z
" clip-path="url(#p401b4e59d4)" style="fill: url(#hbfcdd73615); opacity: 0.7; stroke: #800080; stroke-linejoin: miter"/>
   </g>
   <g id="patch_17">
    <path d="M 541.586518 313.66875 
L 566.740537 313.66875 
L 566.740537 82.66875 
L 541.586518 82.66875 
z
" clip-path="url(#p401b4e59d4)" style="fill: url(#hbfcdd73615); opacity: 0.7; stroke: #800080; stroke-linejoin: miter"/>
   </g>
   <g id="patch_18">
    <path d="M 583.509883 313.66875 
L 608.663903 313.66875 
L 608.663903 118.7625 
L 583.509883 118.7625 
z
" clip-path="url(#p401b4e59d4)" style="fill: url(#hbfcdd73615); opacity: 0.7; stroke: #800080; stroke-linejoin: miter"/>
   </g>
   <g id="patch_19">
    <path d="M 625.433249 313.66875 
L 650.587269 313.66875 
L 650.587269 227.04375 
L 625.433249 227.04375 
z
" clip-path="url(#p401b4e59d4)" style="fill: url(#hbfcdd73615); opacity: 0.7; stroke: #800080; stroke-linejoin: miter"/>
   </g>
   <g id="patch_20">
    <path d="M 667.356615 313.66875 
L 692.510635 313.66875 
L 692.510635 248.7 
L 667.356615 248.7 
z
" clip-path="url(#p401b4e59d4)" style="fill: url(#hbfcdd73615); opacity: 0.7; stroke: #800080; stroke-linejoin: miter"/>
   </g>
   <g id="patch_21">
    <path d="M 709.279981 313.66875 
L 734.434001 313.66875 
L 734.434001 277.575 
L 709.279981 277.575 
z
" clip-path="url(#p401b4e59d4)" style="fill: url(#hbfcdd73615); opacity: 0.7; stroke: #800080; stroke-linejoin: miter"/>
   </g>
   <g id="patch_22">
    <path d="M 751.203347 313.66875 
L 776.357367 313.66875 
L 776.357367 302.840625 
L 751.203347 302.840625 
z
" clip-path="url(#p401b4e59d4)" style="fill: url(#hbfcdd73615); opacity: 0.7; stroke: #800080; stroke-linejoin: miter"/>
   </g>
   <g id="patch_23">
    <path d="M 485.828441 313.66875 
L 485.828441 36.46875 
" style="fill: none; stroke: #000000; stroke-width: 0.8; stroke-linejoin: miter; stroke-linecap: square"/>
   </g>
   <g id="patch_24">
    <path d="M 485.828441 313.66875 
L 790.192077 313.66875 
" style="fill: none; stroke: #000000; stroke-width: 0.8; stroke-linejoin: miter; stroke-linecap: square"/>
   </g>
   <g id="patch_25">
    <path d="M 667.356615 248.7 
L 692.510635 248.7 
L 692.510635 125.98125 
L 667.356615 125.98125 
z
" clip-path="url(#p401b4e59d4)" style="fill: #e6e6fa; stroke: #800080; stroke-linejoin: miter"/>
   </g>
   <g id="patch_26">
    <path d="M 709.279981 277.575 
L 734.434001 277.575 
L 734.434001 176.5125 
L 709.279981 176.5125 
z
" clip-path="url(#p401b4e59d4)" style="fill: #e6e6fa; stroke: #800080; stroke-linejoin: miter"/>
   </g>
   <g id="patch_27">
    <path d="M 751.203347 302.840625 
L 776.357367 302.840625 
L 776.357367 227.04375 
L 751.203347 227.04375 
z
" clip-path="url(#p401b4e59d4)" style="fill: #e6e6fa; stroke: #800080; stroke-linejoin: miter"/>
   </g>
   <g id="text_30">
    <!-- NYU CTF -->
    <g transform="translate(565.705572 30.229687) scale(0.3 -0.3)">
     <defs>
      <path id="DejaVuSans-Bold-4e" d="M 588 4666 
L 1931 4666 
L 3628 1466 
L 3628 4666 
L 4769 4666 
L 4769 0 
L 3425 0 
L 1728 3200 
L 1728 0 
L 588 0 
L 588 4666 
z
" transform="scale(0.015625)"/>
      <path id="DejaVuSans-Bold-59" d="M -63 4666 
L 1253 4666 
L 2316 3003 
L 3378 4666 
L 4697 4666 
L 2919 1966 
L 2919 0 
L 1716 0 
L 1716 1966 
L -63 4666 
z
" transform="scale(0.015625)"/>
      <path id="DejaVuSans-Bold-55" d="M 588 4666 
L 1791 4666 
L 1791 1869 
Q 1791 1291 1980 1042 
Q 2169 794 2597 794 
Q 3028 794 3217 1042 
Q 3406 1291 3406 1869 
L 3406 4666 
L 4609 4666 
L 4609 1869 
Q 4609 878 4112 393 
Q 3616 -91 2597 -91 
Q 1581 -91 1084 393 
Q 588 878 588 1869 
L 588 4666 
z
" transform="scale(0.015625)"/>
      <path id="DejaVuSans-Bold-20" transform="scale(0.015625)"/>
     </defs>
     <use xlink:href="#DejaVuSans-Bold-4e"/>
     <use xlink:href="#DejaVuSans-Bold-59" transform="translate(83.691406 0)"/>
     <use xlink:href="#DejaVuSans-Bold-55" transform="translate(156.103516 0)"/>
     <use xlink:href="#DejaVuSans-Bold-20" transform="translate(237.304688 0)"/>
     <use xlink:href="#DejaVuSans-Bold-43" transform="translate(272.119141 0)"/>
     <use xlink:href="#DejaVuSans-Bold-54" transform="translate(345.507812 0)"/>
     <use xlink:href="#DejaVuSans-Bold-46" transform="translate(413.720703 0)"/>
    </g>
   </g>
   <g id="line2d_44">
    <path d="M 658.971942 313.66875 
L 658.971942 36.46875 
" clip-path="url(#p401b4e59d4)" style="fill: none; stroke-dasharray: 18.5,8; stroke-dashoffset: 0; stroke: #808080; stroke-opacity: 0.8; stroke-width: 5"/>
   </g>
  </g>
  <g id="axes_3">
   <g id="patch_28">
    <path d="M 835.846623 313.66875 
L 1140.210259 313.66875 
L 1140.210259 36.46875 
L 835.846623 36.46875 
z
" style="fill: #e6ffe6; opacity: 0.3"/>
   </g>
   <g id="matplotlib.axis_5">
    <g id="xtick_15">
     <g id="line2d_45">
      <g>
       <use xlink:href="#m9a66c9f802" x="862.258343" y="313.66875" style="stroke: #000000; stroke-width: 0.8"/>
      </g>
     </g>
     <g id="text_31">
      <!-- Claude-3.7-Sonnet -->
      <g transform="translate(717.004727 451.949075) rotate(-40) scale(0.2 -0.2)">
       <use xlink:href="#DejaVuSans-43"/>
       <use xlink:href="#DejaVuSans-6c" transform="translate(69.824219 0)"/>
       <use xlink:href="#DejaVuSans-61" transform="translate(97.607422 0)"/>
       <use xlink:href="#DejaVuSans-75" transform="translate(158.886719 0)"/>
       <use xlink:href="#DejaVuSans-64" transform="translate(222.265625 0)"/>
       <use xlink:href="#DejaVuSans-65" transform="translate(285.742188 0)"/>
       <use xlink:href="#DejaVuSans-2d" transform="translate(347.265625 0)"/>
       <use xlink:href="#DejaVuSans-33" transform="translate(383.349609 0)"/>
       <use xlink:href="#DejaVuSans-2e" transform="translate(446.972656 0)"/>
       <use xlink:href="#DejaVuSans-37" transform="translate(478.759766 0)"/>
       <use xlink:href="#DejaVuSans-2d" transform="translate(542.382812 0)"/>
       <use xlink:href="#DejaVuSans-53" transform="translate(578.466797 0)"/>
       <use xlink:href="#DejaVuSans-6f" transform="translate(641.943359 0)"/>
       <use xlink:href="#DejaVuSans-6e" transform="translate(703.125 0)"/>
       <use xlink:href="#DejaVuSans-6e" transform="translate(766.503906 0)"/>
       <use xlink:href="#DejaVuSans-65" transform="translate(829.882812 0)"/>
       <use xlink:href="#DejaVuSans-74" transform="translate(891.40625 0)"/>
      </g>
     </g>
    </g>
    <g id="xtick_16">
     <g id="line2d_46">
      <g>
       <use xlink:href="#m9a66c9f802" x="904.181709" y="313.66875" style="stroke: #000000; stroke-width: 0.8"/>
      </g>
     </g>
     <g id="text_32">
      <!-- DeepSeek-V3-0324 -->
      <g transform="translate(754.303099 455.829906) rotate(-40) scale(0.2 -0.2)">
       <use xlink:href="#DejaVuSans-44"/>
       <use xlink:href="#DejaVuSans-65" transform="translate(77.001953 0)"/>
       <use xlink:href="#DejaVuSans-65" transform="translate(138.525391 0)"/>
       <use xlink:href="#DejaVuSans-70" transform="translate(200.048828 0)"/>
       <use xlink:href="#DejaVuSans-53" transform="translate(263.525391 0)"/>
       <use xlink:href="#DejaVuSans-65" transform="translate(327.001953 0)"/>
       <use xlink:href="#DejaVuSans-65" transform="translate(388.525391 0)"/>
       <use xlink:href="#DejaVuSans-6b" transform="translate(450.048828 0)"/>
       <use xlink:href="#DejaVuSans-2d" transform="translate(507.958984 0)"/>
       <use xlink:href="#DejaVuSans-56" transform="translate(538.167969 0)"/>
       <use xlink:href="#DejaVuSans-33" transform="translate(606.576172 0)"/>
       <use xlink:href="#DejaVuSans-2d" transform="translate(670.199219 0)"/>
       <use xlink:href="#DejaVuSans-30" transform="translate(706.283203 0)"/>
       <use xlink:href="#DejaVuSans-33" transform="translate(769.90625 0)"/>
       <use xlink:href="#DejaVuSans-32" transform="translate(833.529297 0)"/>
       <use xlink:href="#DejaVuSans-34" transform="translate(897.152344 0)"/>
      </g>
     </g>
    </g>
    <g id="xtick_17">
     <g id="line2d_47">
      <g>
       <use xlink:href="#m9a66c9f802" x="946.105075" y="313.66875" style="stroke: #000000; stroke-width: 0.8"/>
      </g>
     </g>
     <g id="text_33">
      <!-- Claude-3.5-Sonnet -->
      <g transform="translate(800.851458 451.949075) rotate(-40) scale(0.2 -0.2)">
       <use xlink:href="#DejaVuSans-43"/>
       <use xlink:href="#DejaVuSans-6c" transform="translate(69.824219 0)"/>
       <use xlink:href="#DejaVuSans-61" transform="translate(97.607422 0)"/>
       <use xlink:href="#DejaVuSans-75" transform="translate(158.886719 0)"/>
       <use xlink:href="#DejaVuSans-64" transform="translate(222.265625 0)"/>
       <use xlink:href="#DejaVuSans-65" transform="translate(285.742188 0)"/>
       <use xlink:href="#DejaVuSans-2d" transform="translate(347.265625 0)"/>
       <use xlink:href="#DejaVuSans-33" transform="translate(383.349609 0)"/>
       <use xlink:href="#DejaVuSans-2e" transform="translate(446.972656 0)"/>
       <use xlink:href="#DejaVuSans-35" transform="translate(478.759766 0)"/>
       <use xlink:href="#DejaVuSans-2d" transform="translate(542.382812 0)"/>
       <use xlink:href="#DejaVuSans-53" transform="translate(578.466797 0)"/>
       <use xlink:href="#DejaVuSans-6f" transform="translate(641.943359 0)"/>
       <use xlink:href="#DejaVuSans-6e" transform="translate(703.125 0)"/>
       <use xlink:href="#DejaVuSans-6e" transform="translate(766.503906 0)"/>
       <use xlink:href="#DejaVuSans-65" transform="translate(829.882812 0)"/>
       <use xlink:href="#DejaVuSans-74" transform="translate(891.40625 0)"/>
      </g>
     </g>
    </g>
    <g id="xtick_18">
     <g id="line2d_48">
      <g>
       <use xlink:href="#m9a66c9f802" x="988.028441" y="313.66875" style="stroke: #000000; stroke-width: 0.8"/>
      </g>
     </g>
     <g id="text_34">
      <!-- Gemini-2.5-Flash -->
      <g transform="translate(855.342741 441.403341) rotate(-40) scale(0.2 -0.2)">
       <use xlink:href="#DejaVuSans-47"/>
       <use xlink:href="#DejaVuSans-65" transform="translate(77.490234 0)"/>
       <use xlink:href="#DejaVuSans-6d" transform="translate(139.013672 0)"/>
       <use xlink:href="#DejaVuSans-69" transform="translate(236.425781 0)"/>
       <use xlink:href="#DejaVuSans-6e" transform="translate(264.208984 0)"/>
       <use xlink:href="#DejaVuSans-69" transform="translate(327.587891 0)"/>
       <use xlink:href="#DejaVuSans-2d" transform="translate(355.371094 0)"/>
       <use xlink:href="#DejaVuSans-32" transform="translate(391.455078 0)"/>
       <use xlink:href="#DejaVuSans-2e" transform="translate(455.078125 0)"/>
       <use xlink:href="#DejaVuSans-35" transform="translate(486.865234 0)"/>
       <use xlink:href="#DejaVuSans-2d" transform="translate(550.488281 0)"/>
       <use xlink:href="#DejaVuSans-46" transform="translate(586.572266 0)"/>
       <use xlink:href="#DejaVuSans-6c" transform="translate(644.091797 0)"/>
       <use xlink:href="#DejaVuSans-61" transform="translate(671.875 0)"/>
       <use xlink:href="#DejaVuSans-73" transform="translate(733.154297 0)"/>
       <use xlink:href="#DejaVuSans-68" transform="translate(785.253906 0)"/>
      </g>
     </g>
    </g>
    <g id="xtick_19">
     <g id="line2d_49">
      <g>
       <use xlink:href="#m9a66c9f802" x="1029.951807" y="313.66875" style="stroke: #000000; stroke-width: 0.8"/>
      </g>
     </g>
     <g id="text_35">
      <!-- Qwen3-14B -->
      <g transform="translate(938.268636 406.998134) rotate(-40) scale(0.2 -0.2)">
       <use xlink:href="#DejaVuSans-51"/>
       <use xlink:href="#DejaVuSans-77" transform="translate(78.710938 0)"/>
       <use xlink:href="#DejaVuSans-65" transform="translate(160.498047 0)"/>
       <use xlink:href="#DejaVuSans-6e" transform="translate(222.021484 0)"/>
       <use xlink:href="#DejaVuSans-33" transform="translate(285.400391 0)"/>
       <use xlink:href="#DejaVuSans-2d" transform="translate(349.023438 0)"/>
       <use xlink:href="#DejaVuSans-31" transform="translate(385.107422 0)"/>
       <use xlink:href="#DejaVuSans-34" transform="translate(448.730469 0)"/>
       <use xlink:href="#DejaVuSans-42" transform="translate(512.353516 0)"/>
      </g>
     </g>
    </g>
    <g id="xtick_20">
     <g id="line2d_50">
      <g>
       <use xlink:href="#m9a66c9f802" x="1071.875173" y="313.66875" style="stroke: #000000; stroke-width: 0.8"/>
      </g>
     </g>
     <g id="text_36">
      <!-- Qwen3-32B -->
      <g transform="translate(980.192002 406.998134) rotate(-40) scale(0.2 -0.2)">
       <use xlink:href="#DejaVuSans-51"/>
       <use xlink:href="#DejaVuSans-77" transform="translate(78.710938 0)"/>
       <use xlink:href="#DejaVuSans-65" transform="translate(160.498047 0)"/>
       <use xlink:href="#DejaVuSans-6e" transform="translate(222.021484 0)"/>
       <use xlink:href="#DejaVuSans-33" transform="translate(285.400391 0)"/>
       <use xlink:href="#DejaVuSans-2d" transform="translate(349.023438 0)"/>
       <use xlink:href="#DejaVuSans-33" transform="translate(385.107422 0)"/>
       <use xlink:href="#DejaVuSans-32" transform="translate(448.730469 0)"/>
       <use xlink:href="#DejaVuSans-42" transform="translate(512.353516 0)"/>
      </g>
     </g>
    </g>
    <g id="xtick_21">
     <g id="line2d_51">
      <g>
       <use xlink:href="#m9a66c9f802" x="1113.798539" y="313.66875" style="stroke: #000000; stroke-width: 0.8"/>
      </g>
     </g>
     <g id="text_37">
      <!-- Qwen3-8B -->
      <g transform="translate(1031.863283 398.818662) rotate(-40) scale(0.2 -0.2)">
       <use xlink:href="#DejaVuSans-51"/>
       <use xlink:href="#DejaVuSans-77" transform="translate(78.710938 0)"/>
       <use xlink:href="#DejaVuSans-65" transform="translate(160.498047 0)"/>
       <use xlink:href="#DejaVuSans-6e" transform="translate(222.021484 0)"/>
       <use xlink:href="#DejaVuSans-33" transform="translate(285.400391 0)"/>
       <use xlink:href="#DejaVuSans-2d" transform="translate(349.023438 0)"/>
       <use xlink:href="#DejaVuSans-38" transform="translate(385.107422 0)"/>
       <use xlink:href="#DejaVuSans-42" transform="translate(448.730469 0)"/>
      </g>
     </g>
    </g>
   </g>
   <g id="matplotlib.axis_6">
    <g id="ytick_15">
     <g id="line2d_52">
      <path d="M 835.846623 313.66875 
L 1140.210259 313.66875 
" clip-path="url(#pbc5c1783bd)" style="fill: none; stroke-dasharray: 2.96,1.28; stroke-dashoffset: 0; stroke: #b0b0b0; stroke-opacity: 0.3; stroke-width: 0.8"/>
     </g>
     <g id="line2d_53">
      <g>
       <use xlink:href="#mdd963504c6" x="835.846623" y="313.66875" style="stroke: #000000; stroke-width: 0.8"/>
      </g>
     </g>
     <g id="text_38">
      <!-- 0 -->
      <g transform="translate(818.666623 319.7475) scale(0.16 -0.16)">
       <use xlink:href="#DejaVuSans-30"/>
      </g>
     </g>
    </g>
    <g id="ytick_16">
     <g id="line2d_54">
      <path d="M 835.846623 274.06875 
L 1140.210259 274.06875 
" clip-path="url(#pbc5c1783bd)" style="fill: none; stroke-dasharray: 2.96,1.28; stroke-dashoffset: 0; stroke: #b0b0b0; stroke-opacity: 0.3; stroke-width: 0.8"/>
     </g>
     <g id="line2d_55">
      <g>
       <use xlink:href="#mdd963504c6" x="835.846623" y="274.06875" style="stroke: #000000; stroke-width: 0.8"/>
      </g>
     </g>
     <g id="text_39">
      <!-- 5 -->
      <g transform="translate(818.666623 280.1475) scale(0.16 -0.16)">
       <use xlink:href="#DejaVuSans-35"/>
      </g>
     </g>
    </g>
    <g id="ytick_17">
     <g id="line2d_56">
      <path d="M 835.846623 234.46875 
L 1140.210259 234.46875 
" clip-path="url(#pbc5c1783bd)" style="fill: none; stroke-dasharray: 2.96,1.28; stroke-dashoffset: 0; stroke: #b0b0b0; stroke-opacity: 0.3; stroke-width: 0.8"/>
     </g>
     <g id="line2d_57">
      <g>
       <use xlink:href="#mdd963504c6" x="835.846623" y="234.46875" style="stroke: #000000; stroke-width: 0.8"/>
      </g>
     </g>
     <g id="text_40">
      <!-- 10 -->
      <g transform="translate(808.486623 240.5475) scale(0.16 -0.16)">
       <use xlink:href="#DejaVuSans-31"/>
       <use xlink:href="#DejaVuSans-30" transform="translate(63.623047 0)"/>
      </g>
     </g>
    </g>
    <g id="ytick_18">
     <g id="line2d_58">
      <path d="M 835.846623 194.86875 
L 1140.210259 194.86875 
" clip-path="url(#pbc5c1783bd)" style="fill: none; stroke-dasharray: 2.96,1.28; stroke-dashoffset: 0; stroke: #b0b0b0; stroke-opacity: 0.3; stroke-width: 0.8"/>
     </g>
     <g id="line2d_59">
      <g>
       <use xlink:href="#mdd963504c6" x="835.846623" y="194.86875" style="stroke: #000000; stroke-width: 0.8"/>
      </g>
     </g>
     <g id="text_41">
      <!-- 15 -->
      <g transform="translate(808.486623 200.9475) scale(0.16 -0.16)">
       <use xlink:href="#DejaVuSans-31"/>
       <use xlink:href="#DejaVuSans-35" transform="translate(63.623047 0)"/>
      </g>
     </g>
    </g>
    <g id="ytick_19">
     <g id="line2d_60">
      <path d="M 835.846623 155.26875 
L 1140.210259 155.26875 
" clip-path="url(#pbc5c1783bd)" style="fill: none; stroke-dasharray: 2.96,1.28; stroke-dashoffset: 0; stroke: #b0b0b0; stroke-opacity: 0.3; stroke-width: 0.8"/>
     </g>
     <g id="line2d_61">
      <g>
       <use xlink:href="#mdd963504c6" x="835.846623" y="155.26875" style="stroke: #000000; stroke-width: 0.8"/>
      </g>
     </g>
     <g id="text_42">
      <!-- 20 -->
      <g transform="translate(808.486623 161.3475) scale(0.16 -0.16)">
       <use xlink:href="#DejaVuSans-32"/>
       <use xlink:href="#DejaVuSans-30" transform="translate(63.623047 0)"/>
      </g>
     </g>
    </g>
    <g id="ytick_20">
     <g id="line2d_62">
      <path d="M 835.846623 115.66875 
L 1140.210259 115.66875 
" clip-path="url(#pbc5c1783bd)" style="fill: none; stroke-dasharray: 2.96,1.28; stroke-dashoffset: 0; stroke: #b0b0b0; stroke-opacity: 0.3; stroke-width: 0.8"/>
     </g>
     <g id="line2d_63">
      <g>
       <use xlink:href="#mdd963504c6" x="835.846623" y="115.66875" style="stroke: #000000; stroke-width: 0.8"/>
      </g>
     </g>
     <g id="text_43">
      <!-- 25 -->
      <g transform="translate(808.486623 121.7475) scale(0.16 -0.16)">
       <use xlink:href="#DejaVuSans-32"/>
       <use xlink:href="#DejaVuSans-35" transform="translate(63.623047 0)"/>
      </g>
     </g>
    </g>
    <g id="ytick_21">
     <g id="line2d_64">
      <path d="M 835.846623 76.06875 
L 1140.210259 76.06875 
" clip-path="url(#pbc5c1783bd)" style="fill: none; stroke-dasharray: 2.96,1.28; stroke-dashoffset: 0; stroke: #b0b0b0; stroke-opacity: 0.3; stroke-width: 0.8"/>
     </g>
     <g id="line2d_65">
      <g>
       <use xlink:href="#mdd963504c6" x="835.846623" y="76.06875" style="stroke: #000000; stroke-width: 0.8"/>
      </g>
     </g>
     <g id="text_44">
      <!-- 30 -->
      <g transform="translate(808.486623 82.1475) scale(0.16 -0.16)">
       <use xlink:href="#DejaVuSans-33"/>
       <use xlink:href="#DejaVuSans-30" transform="translate(63.623047 0)"/>
      </g>
     </g>
    </g>
    <g id="ytick_22">
     <g id="line2d_66">
      <path d="M 835.846623 36.46875 
L 1140.210259 36.46875 
" clip-path="url(#pbc5c1783bd)" style="fill: none; stroke-dasharray: 2.96,1.28; stroke-dashoffset: 0; stroke: #b0b0b0; stroke-opacity: 0.3; stroke-width: 0.8"/>
     </g>
     <g id="line2d_67">
      <g>
       <use xlink:href="#mdd963504c6" x="835.846623" y="36.46875" style="stroke: #000000; stroke-width: 0.8"/>
      </g>
     </g>
     <g id="text_45">
      <!-- 35 -->
      <g transform="translate(808.486623 42.5475) scale(0.16 -0.16)">
       <use xlink:href="#DejaVuSans-33"/>
       <use xlink:href="#DejaVuSans-35" transform="translate(63.623047 0)"/>
      </g>
     </g>
    </g>
   </g>
   <g id="patch_29">
    <path d="M 849.681334 313.66875 
L 874.835353 313.66875 
L 874.835353 76.06875 
L 849.681334 76.06875 
z
" clip-path="url(#pbc5c1783bd)" style="fill: url(#hbfcdd73615); opacity: 0.7; stroke: #800080; stroke-linejoin: miter"/>
   </g>
   <g id="patch_30">
    <path d="M 891.604699 313.66875 
L 916.758719 313.66875 
L 916.758719 95.86875 
L 891.604699 95.86875 
z
" clip-path="url(#pbc5c1783bd)" style="fill: url(#hbfcdd73615); opacity: 0.7; stroke: #800080; stroke-linejoin: miter"/>
   </g>
   <g id="patch_31">
    <path d="M 933.528065 313.66875 
L 958.682085 313.66875 
L 958.682085 115.66875 
L 933.528065 115.66875 
z
" clip-path="url(#pbc5c1783bd)" style="fill: url(#hbfcdd73615); opacity: 0.7; stroke: #800080; stroke-linejoin: miter"/>
   </g>
   <g id="patch_32">
    <path d="M 975.451431 313.66875 
L 1000.605451 313.66875 
L 1000.605451 175.06875 
L 975.451431 175.06875 
z
" clip-path="url(#pbc5c1783bd)" style="fill: url(#hbfcdd73615); opacity: 0.7; stroke: #800080; stroke-linejoin: miter"/>
   </g>
   <g id="patch_33">
    <path d="M 1017.374797 313.66875 
L 1042.528817 313.66875 
L 1042.528817 214.66875 
L 1017.374797 214.66875 
z
" clip-path="url(#pbc5c1783bd)" style="fill: url(#hbfcdd73615); opacity: 0.7; stroke: #800080; stroke-linejoin: miter"/>
   </g>
   <g id="patch_34">
    <path d="M 1059.298163 313.66875 
L 1084.452183 313.66875 
L 1084.452183 274.06875 
L 1059.298163 274.06875 
z
" clip-path="url(#pbc5c1783bd)" style="fill: url(#hbfcdd73615); opacity: 0.7; stroke: #800080; stroke-linejoin: miter"/>
   </g>
   <g id="patch_35">
    <path d="M 1101.221529 313.66875 
L 1126.375548 313.66875 
L 1126.375548 274.06875 
L 1101.221529 274.06875 
z
" clip-path="url(#pbc5c1783bd)" style="fill: url(#hbfcdd73615); opacity: 0.7; stroke: #800080; stroke-linejoin: miter"/>
   </g>
   <g id="patch_36">
    <path d="M 835.846623 313.66875 
L 835.846623 36.46875 
" style="fill: none; stroke: #000000; stroke-width: 0.8; stroke-linejoin: miter; stroke-linecap: square"/>
   </g>
   <g id="patch_37">
    <path d="M 835.846623 313.66875 
L 1140.210259 313.66875 
" style="fill: none; stroke: #000000; stroke-width: 0.8; stroke-linejoin: miter; stroke-linecap: square"/>
   </g>
   <g id="patch_38">
    <path d="M 1017.374797 214.66875 
L 1042.528817 214.66875 
L 1042.528817 155.26875 
L 1017.374797 155.26875 
z
" clip-path="url(#pbc5c1783bd)" style="fill: #e6e6fa; stroke: #800080; stroke-linejoin: miter"/>
   </g>
   <g id="patch_39">
    <path d="M 1059.298163 274.06875 
L 1084.452183 274.06875 
L 1084.452183 175.06875 
L 1059.298163 175.06875 
z
" clip-path="url(#pbc5c1783bd)" style="fill: #e6e6fa; stroke: #800080; stroke-linejoin: miter"/>
   </g>
   <g id="patch_40">
    <path d="M 1101.221529 274.06875 
L 1126.375548 274.06875 
L 1126.375548 234.46875 
L 1101.221529 234.46875 
z
" clip-path="url(#pbc5c1783bd)" style="fill: #e6e6fa; stroke: #800080; stroke-linejoin: miter"/>
   </g>
   <g id="text_46">
    <!-- Cybench -->
    <g transform="translate(916.082347 29.995312) scale(0.3 -0.3)">
     <defs>
      <path id="DejaVuSans-Bold-79" d="M 78 3500 
L 1197 3500 
L 2138 1125 
L 2938 3500 
L 4056 3500 
L 2584 -331 
Q 2363 -916 2067 -1148 
Q 1772 -1381 1288 -1381 
L 641 -1381 
L 641 -647 
L 991 -647 
Q 1275 -647 1404 -556 
Q 1534 -466 1606 -231 
L 1638 -134 
L 78 3500 
z
" transform="scale(0.015625)"/>
      <path id="DejaVuSans-Bold-62" d="M 2400 722 
Q 2759 722 2948 984 
Q 3138 1247 3138 1747 
Q 3138 2247 2948 2509 
Q 2759 2772 2400 2772 
Q 2041 2772 1848 2508 
Q 1656 2244 1656 1747 
Q 1656 1250 1848 986 
Q 2041 722 2400 722 
z
M 1656 2988 
Q 1888 3294 2169 3439 
Q 2450 3584 2816 3584 
Q 3463 3584 3878 3070 
Q 4294 2556 4294 1747 
Q 4294 938 3878 423 
Q 3463 -91 2816 -91 
Q 2450 -91 2169 54 
Q 1888 200 1656 506 
L 1656 0 
L 538 0 
L 538 4863 
L 1656 4863 
L 1656 2988 
z
" transform="scale(0.015625)"/>
      <path id="DejaVuSans-Bold-63" d="M 3366 3391 
L 3366 2478 
Q 3138 2634 2908 2709 
Q 2678 2784 2431 2784 
Q 1963 2784 1702 2511 
Q 1441 2238 1441 1747 
Q 1441 1256 1702 982 
Q 1963 709 2431 709 
Q 2694 709 2930 787 
Q 3166 866 3366 1019 
L 3366 103 
Q 3103 6 2833 -42 
Q 2563 -91 2291 -91 
Q 1344 -91 809 395 
Q 275 881 275 1747 
Q 275 2613 809 3098 
Q 1344 3584 2291 3584 
Q 2566 3584 2833 3536 
Q 3100 3488 3366 3391 
z
" transform="scale(0.015625)"/>
      <path id="DejaVuSans-Bold-68" d="M 4056 2131 
L 4056 0 
L 2931 0 
L 2931 347 
L 2931 1625 
Q 2931 2084 2911 2256 
Q 2891 2428 2841 2509 
Q 2775 2619 2662 2680 
Q 2550 2741 2406 2741 
Q 2056 2741 1856 2470 
Q 1656 2200 1656 1722 
L 1656 0 
L 538 0 
L 538 4863 
L 1656 4863 
L 1656 2988 
Q 1909 3294 2193 3439 
Q 2478 3584 2822 3584 
Q 3428 3584 3742 3212 
Q 4056 2841 4056 2131 
z
" transform="scale(0.015625)"/>
     </defs>
     <use xlink:href="#DejaVuSans-Bold-43"/>
     <use xlink:href="#DejaVuSans-Bold-79" transform="translate(73.388672 0)"/>
     <use xlink:href="#DejaVuSans-Bold-62" transform="translate(138.574219 0)"/>
     <use xlink:href="#DejaVuSans-Bold-65" transform="translate(210.15625 0)"/>
     <use xlink:href="#DejaVuSans-Bold-6e" transform="translate(277.978516 0)"/>
     <use xlink:href="#DejaVuSans-Bold-63" transform="translate(349.169922 0)"/>
     <use xlink:href="#DejaVuSans-Bold-68" transform="translate(408.447266 0)"/>
    </g>
   </g>
   <g id="line2d_68">
    <path d="M 1008.990124 313.66875 
L 1008.990124 36.46875 
" clip-path="url(#pbc5c1783bd)" style="fill: none; stroke-dasharray: 18.5,8; stroke-dashoffset: 0; stroke: #808080; stroke-opacity: 0.8; stroke-width: 5"/>
   </g>
  </g>
  <g id="text_47">
   <!-- Pass@1 (%) -->
   <g transform="translate(96.486353 247.717187) rotate(-90) scale(0.25 -0.25)">
    <defs>
     <path id="DejaVuSans-Bold-50" d="M 588 4666 
L 2584 4666 
Q 3475 4666 3951 4270 
Q 4428 3875 4428 3144 
Q 4428 2409 3951 2014 
Q 3475 1619 2584 1619 
L 1791 1619 
L 1791 0 
L 588 0 
L 588 4666 
z
M 1791 3794 
L 1791 2491 
L 2456 2491 
Q 2806 2491 2997 2661 
Q 3188 2831 3188 3144 
Q 3188 3456 2997 3625 
Q 2806 3794 2456 3794 
L 1791 3794 
z
" transform="scale(0.015625)"/>
     <path id="DejaVuSans-Bold-61" d="M 2106 1575 
Q 1756 1575 1579 1456 
Q 1403 1338 1403 1106 
Q 1403 894 1545 773 
Q 1688 653 1941 653 
Q 2256 653 2472 879 
Q 2688 1106 2688 1447 
L 2688 1575 
L 2106 1575 
z
M 3816 1997 
L 3816 0 
L 2688 0 
L 2688 519 
Q 2463 200 2181 54 
Q 1900 -91 1497 -91 
Q 953 -91 614 226 
Q 275 544 275 1050 
Q 275 1666 698 1953 
Q 1122 2241 2028 2241 
L 2688 2241 
L 2688 2328 
Q 2688 2594 2478 2717 
Q 2269 2841 1825 2841 
Q 1466 2841 1156 2769 
Q 847 2697 581 2553 
L 581 3406 
Q 941 3494 1303 3539 
Q 1666 3584 2028 3584 
Q 2975 3584 3395 3211 
Q 3816 2838 3816 1997 
z
" transform="scale(0.015625)"/>
     <path id="DejaVuSans-Bold-73" d="M 3272 3391 
L 3272 2541 
Q 2913 2691 2578 2766 
Q 2244 2841 1947 2841 
Q 1628 2841 1473 2761 
Q 1319 2681 1319 2516 
Q 1319 2381 1436 2309 
Q 1553 2238 1856 2203 
L 2053 2175 
Q 2913 2066 3209 1816 
Q 3506 1566 3506 1031 
Q 3506 472 3093 190 
Q 2681 -91 1863 -91 
Q 1516 -91 1145 -36 
Q 775 19 384 128 
L 384 978 
Q 719 816 1070 734 
Q 1422 653 1784 653 
Q 2113 653 2278 743 
Q 2444 834 2444 1013 
Q 2444 1163 2330 1236 
Q 2216 1309 1875 1350 
L 1678 1375 
Q 931 1469 631 1722 
Q 331 1975 331 2491 
Q 331 3047 712 3315 
Q 1094 3584 1881 3584 
Q 2191 3584 2531 3537 
Q 2872 3491 3272 3391 
z
" transform="scale(0.015625)"/>
     <path id="DejaVuSans-Bold-40" d="M 2597 1684 
Q 2597 1300 2761 1078 
Q 2925 856 3206 856 
Q 3484 856 3650 1079 
Q 3816 1303 3816 1684 
Q 3816 2063 3648 2283 
Q 3481 2503 3200 2503 
Q 2925 2503 2761 2283 
Q 2597 2063 2597 1684 
z
M 3878 744 
Q 3784 522 3576 398 
Q 3369 275 3091 275 
Q 2553 275 2217 664 
Q 1881 1053 1881 1678 
Q 1881 2303 2218 2693 
Q 2556 3084 3091 3084 
Q 3369 3084 3576 2959 
Q 3784 2834 3878 2613 
L 3878 3022 
L 4531 3022 
L 4531 856 
Q 4919 916 5141 1230 
Q 5363 1544 5363 2034 
Q 5363 2347 5272 2620 
Q 5181 2894 4997 3122 
Q 4700 3503 4254 3709 
Q 3809 3916 3291 3916 
Q 2928 3916 2597 3820 
Q 2266 3725 1984 3541 
Q 1522 3234 1264 2748 
Q 1006 2263 1006 1697 
Q 1006 1231 1173 823 
Q 1341 416 1656 103 
Q 1969 -203 2373 -364 
Q 2778 -525 3238 -525 
Q 3631 -525 4025 -378 
Q 4419 -231 4697 19 
L 5031 -488 
Q 4641 -791 4180 -952 
Q 3719 -1113 3244 -1113 
Q 2666 -1113 2153 -908 
Q 1641 -703 1241 -313 
Q 841 78 631 592 
Q 422 1106 422 1697 
Q 422 2266 634 2781 
Q 847 3297 1241 3688 
Q 1634 4075 2157 4287 
Q 2681 4500 3244 4500 
Q 3944 4500 4516 4233 
Q 5088 3966 5472 3463 
Q 5706 3156 5826 2798 
Q 5947 2441 5947 2047 
Q 5947 1200 5437 731 
Q 4928 263 4000 263 
L 3878 263 
L 3878 744 
z
" transform="scale(0.015625)"/>
     <path id="DejaVuSans-Bold-31" d="M 750 831 
L 1813 831 
L 1813 3847 
L 722 3622 
L 722 4441 
L 1806 4666 
L 2950 4666 
L 2950 831 
L 4013 831 
L 4013 0 
L 750 0 
L 750 831 
z
" transform="scale(0.015625)"/>
     <path id="DejaVuSans-Bold-28" d="M 2413 -844 
L 1484 -844 
Q 1006 -72 778 623 
Q 550 1319 550 2003 
Q 550 2688 779 3389 
Q 1009 4091 1484 4856 
L 2413 4856 
Q 2013 4116 1813 3408 
Q 1613 2700 1613 2009 
Q 1613 1319 1811 609 
Q 2009 -100 2413 -844 
z
" transform="scale(0.015625)"/>
     <path id="DejaVuSans-Bold-25" d="M 4959 1925 
Q 4738 1925 4616 1733 
Q 4494 1541 4494 1184 
Q 4494 825 4614 633 
Q 4734 441 4959 441 
Q 5184 441 5303 633 
Q 5422 825 5422 1184 
Q 5422 1541 5301 1733 
Q 5181 1925 4959 1925 
z
M 4959 2450 
Q 5541 2450 5875 2112 
Q 6209 1775 6209 1184 
Q 6209 594 5875 251 
Q 5541 -91 4959 -91 
Q 4378 -91 4042 251 
Q 3706 594 3706 1184 
Q 3706 1772 4042 2111 
Q 4378 2450 4959 2450 
z
M 2094 -91 
L 1403 -91 
L 4319 4750 
L 5013 4750 
L 2094 -91 
z
M 1453 4750 
Q 2034 4750 2367 4411 
Q 2700 4072 2700 3481 
Q 2700 2891 2367 2550 
Q 2034 2209 1453 2209 
Q 872 2209 539 2550 
Q 206 2891 206 3481 
Q 206 4072 539 4411 
Q 872 4750 1453 4750 
z
M 1453 4225 
Q 1228 4225 1106 4031 
Q 984 3838 984 3481 
Q 984 3122 1106 2926 
Q 1228 2731 1453 2731 
Q 1678 2731 1798 2926 
Q 1919 3122 1919 3481 
Q 1919 3838 1797 4031 
Q 1675 4225 1453 4225 
z
" transform="scale(0.015625)"/>
     <path id="DejaVuSans-Bold-29" d="M 513 -844 
Q 913 -100 1113 609 
Q 1313 1319 1313 2009 
Q 1313 2700 1113 3408 
Q 913 4116 513 4856 
L 1441 4856 
Q 1916 4091 2145 3389 
Q 2375 2688 2375 2003 
Q 2375 1319 2147 623 
Q 1919 -72 1441 -844 
L 513 -844 
z
" transform="scale(0.015625)"/>
    </defs>
    <use xlink:href="#DejaVuSans-Bold-50"/>
    <use xlink:href="#DejaVuSans-Bold-61" transform="translate(70.666016 0)"/>
    <use xlink:href="#DejaVuSans-Bold-73" transform="translate(138.146484 0)"/>
    <use xlink:href="#DejaVuSans-Bold-73" transform="translate(197.667969 0)"/>
    <use xlink:href="#DejaVuSans-Bold-40" transform="translate(257.189453 0)"/>
    <use xlink:href="#DejaVuSans-Bold-31" transform="translate(357.189453 0)"/>
    <use xlink:href="#DejaVuSans-Bold-20" transform="translate(426.769531 0)"/>
    <use xlink:href="#DejaVuSans-Bold-28" transform="translate(461.583984 0)"/>
    <use xlink:href="#DejaVuSans-Bold-25" transform="translate(507.287109 0)"/>
    <use xlink:href="#DejaVuSans-Bold-29" transform="translate(607.482422 0)"/>
   </g>
  </g>
  <g id="legend_1">
   <g id="patch_41">
    <path d="M 965.602134 96.850625 
L 1136.090259 96.850625 
Q 1139.690259 96.850625 1139.690259 93.250625 
L 1139.690259 42.06875 
Q 1139.690259 38.46875 1136.090259 38.46875 
L 965.602134 38.46875 
Q 962.002134 38.46875 962.002134 42.06875 
L 962.002134 93.250625 
Q 962.002134 96.850625 965.602134 96.850625 
z
" style="fill: #4d4d4d; opacity: 0.5; stroke: #4d4d4d; stroke-linejoin: miter"/>
   </g>
   <g id="patch_42">
    <path d="M 963.602134 94.850625 
L 1134.090259 94.850625 
Q 1137.690259 94.850625 1137.690259 91.250625 
L 1137.690259 40.06875 
Q 1137.690259 36.46875 1134.090259 36.46875 
L 963.602134 36.46875 
Q 960.002134 36.46875 960.002134 40.06875 
L 960.002134 91.250625 
Q 960.002134 94.850625 963.602134 94.850625 
z
" style="fill: #ffffff; stroke: #cccccc; stroke-linejoin: miter"/>
   </g>
   <g id="patch_43">
    <path d="M 967.202134 57.345937 
L 1003.202134 57.345937 
L 1003.202134 44.745937 
L 967.202134 44.745937 
z
" style="fill: #e6e6fa; stroke: #800080; stroke-linejoin: miter"/>
   </g>
   <g id="text_48">
    <!-- Cyber-Zero -->
    <g transform="translate(1017.602134 57.345937) scale(0.18 -0.18)">
     <defs>
      <path id="DejaVuSans-Bold-5a" d="M 359 4666 
L 4281 4666 
L 4281 3938 
L 1778 909 
L 4353 909 
L 4353 0 
L 288 0 
L 288 728 
L 2791 3756 
L 359 3756 
L 359 4666 
z
" transform="scale(0.015625)"/>
     </defs>
     <use xlink:href="#DejaVuSans-Bold-43"/>
     <use xlink:href="#DejaVuSans-Bold-79" transform="translate(73.388672 0)"/>
     <use xlink:href="#DejaVuSans-Bold-62" transform="translate(138.574219 0)"/>
     <use xlink:href="#DejaVuSans-Bold-65" transform="translate(210.15625 0)"/>
     <use xlink:href="#DejaVuSans-Bold-72" transform="translate(277.978516 0)"/>
     <use xlink:href="#DejaVuSans-Bold-2d" transform="translate(327.294922 0)"/>
     <use xlink:href="#DejaVuSans-Bold-5a" transform="translate(368.798828 0)"/>
     <use xlink:href="#DejaVuSans-Bold-65" transform="translate(441.308594 0)"/>
     <use xlink:href="#DejaVuSans-Bold-72" transform="translate(509.130859 0)"/>
     <use xlink:href="#DejaVuSans-Bold-6f" transform="translate(558.447266 0)"/>
    </g>
   </g>
   <g id="patch_44">
    <path d="M 967.202134 83.907187 
L 1003.202134 83.907187 
L 1003.202134 71.307187 
L 967.202134 71.307187 
z
" style="fill: url(#hbfcdd73615); opacity: 0.7; stroke: #800080; stroke-linejoin: miter"/>
   </g>
   <g id="text_49">
    <!-- Baseline -->
    <g transform="translate(1017.602134 83.907187) scale(0.18 -0.18)">
     <defs>
      <path id="DejaVuSans-Bold-42" d="M 2456 2859 
Q 2741 2859 2887 2984 
Q 3034 3109 3034 3353 
Q 3034 3594 2887 3720 
Q 2741 3847 2456 3847 
L 1791 3847 
L 1791 2859 
L 2456 2859 
z
M 2497 819 
Q 2859 819 3042 972 
Q 3225 1125 3225 1434 
Q 3225 1738 3044 1889 
Q 2863 2041 2497 2041 
L 1791 2041 
L 1791 819 
L 2497 819 
z
M 3616 2497 
Q 4003 2384 4215 2081 
Q 4428 1778 4428 1338 
Q 4428 663 3972 331 
Q 3516 0 2584 0 
L 588 0 
L 588 4666 
L 2394 4666 
Q 3366 4666 3802 4372 
Q 4238 4078 4238 3431 
Q 4238 3091 4078 2852 
Q 3919 2613 3616 2497 
z
" transform="scale(0.015625)"/>
      <path id="DejaVuSans-Bold-6c" d="M 538 4863 
L 1656 4863 
L 1656 0 
L 538 0 
L 538 4863 
z
" transform="scale(0.015625)"/>
      <path id="DejaVuSans-Bold-69" d="M 538 3500 
L 1656 3500 
L 1656 0 
L 538 0 
L 538 3500 
z
M 538 4863 
L 1656 4863 
L 1656 3950 
L 538 3950 
L 538 4863 
z
" transform="scale(0.015625)"/>
     </defs>
     <use xlink:href="#DejaVuSans-Bold-42"/>
     <use xlink:href="#DejaVuSans-Bold-61" transform="translate(76.220703 0)"/>
     <use xlink:href="#DejaVuSans-Bold-73" transform="translate(143.701172 0)"/>
     <use xlink:href="#DejaVuSans-Bold-65" transform="translate(203.222656 0)"/>
     <use xlink:href="#DejaVuSans-Bold-6c" transform="translate(271.044922 0)"/>
     <use xlink:href="#DejaVuSans-Bold-69" transform="translate(305.322266 0)"/>
     <use xlink:href="#DejaVuSans-Bold-6e" transform="translate(339.599609 0)"/>
     <use xlink:href="#DejaVuSans-Bold-65" transform="translate(410.791016 0)"/>
    </g>
   </g>
  </g>
 </g>
 <defs>
  <clipPath id="pf7af97e6a1">
   <rect x="135.810259" y="36.46875" width="304.363636" height="277.2"/>
  </clipPath>
  <clipPath id="p401b4e59d4">
   <rect x="485.828441" y="36.46875" width="304.363636" height="277.2"/>
  </clipPath>
  <clipPath id="pbc5c1783bd">
   <rect x="835.846623" y="36.46875" width="304.363636" height="277.2"/>
  </clipPath>
 </defs>
 <defs>
  <pattern id="hbfcdd73615" patternUnits="userSpaceOnUse" x="0" y="0" width="72" height="72">
   <rect x="0" y="0" width="73" height="73" fill="#d8bfd8"/>
   <path d="M -36 36 
L 36 -36 
M -32 40 
L 40 -32 
M -28 44 
L 44 -28 
M -24 48 
L 48 -24 
M -20 52 
L 52 -20 
M -16 56 
L 56 -16 
M -12 60 
L 60 -12 
M -8 64 
L 64 -8 
M -4 68 
L 68 -4 
M 0 72 
L 72 0 
M 4 76 
L 76 4 
M 8 80 
L 80 8 
M 12 84 
L 84 12 
M 16 88 
L 88 16 
M 20 92 
L 92 20 
M 24 96 
L 96 24 
M 28 100 
L 100 28 
M 32 104 
L 104 32 
M 36 108 
L 108 36 
" style="fill: #800080; stroke: #800080; stroke-width: 1.0; stroke-linecap: butt; stroke-linejoin: miter; stroke-opacity: 0.7"/>
  </pattern>
 </defs>
</svg>
